<?xml version="1.0" encoding="UTF-8"?>
<svg version="1.1" xmlns="http://www.w3.org/2000/svg" width="972" height="1003">
<path d="M0 0 C3.03608959 0.00316691 6.07120699 -0.02043412 9.10717773 -0.0456543 C33.27912448 -0.12344496 57.94687092 2.45336621 76.31616211 19.83129883 C96.31350833 41.53490326 94.9460551 74.92488237 94.83569336 102.52661133 C94.83449521 104.56051606 94.83404973 106.59442135 94.83430481 108.62832642 C94.83275948 112.84494606 94.82462005 117.06147846 94.81103516 121.27807617 C94.79398244 126.63303627 94.79022403 131.98790188 94.79098034 137.34288597 C94.79070624 141.52634553 94.78518789 145.7097852 94.7779789 149.89323807 C94.77484005 151.86643957 94.7728363 153.83964328 94.77208519 155.81284714 C94.76354174 166.51072974 94.56512246 177.14427037 93.83103943 187.8187561 C93.54018567 192.32285225 93.45647811 196.80383921 93.48022461 201.31567383 C93.47635742 202.05043945 93.47249023 202.78520508 93.46850586 203.54223633 C93.47686308 208.53985314 93.75114808 213.4860864 94.10302734 218.47094727 C94.87662321 230.72486522 94.76957545 242.99568495 94.77319336 255.26879883 C94.7764155 257.86220314 94.77978025 260.45560728 94.78327942 263.04901123 C94.78923431 268.46163431 94.79116643 273.87423954 94.79052734 279.28686523 C94.78992763 285.48355673 94.80047379 291.6801609 94.81627101 297.87683034 C94.83108482 303.90974474 94.83451108 309.94261285 94.83391762 315.97554779 C94.8350845 318.50924791 94.83943203 321.04294894 94.84724998 323.57663727 C94.98998777 374.59997441 94.98998777 374.59997441 85.49584961 386.30395508 C83.42912049 390.97222479 85.98066896 397.01716331 87.04272461 401.81567383 C93.73064643 435.5755149 99.81287185 494.27275523 81.01147461 524.36645508 C76.33690052 530.84593416 71.19373893 535.79783544 64.60522461 540.31567383 C66.86233884 542.75306875 69.22995677 544.43565848 72.04272461 546.19067383 C79.8717085 551.3846599 83.06904649 558.01643455 85.26538086 567.02270508 C87.46828287 578.42884214 87.84350397 589.9123233 87.85522461 601.50317383 C87.85623169 602.19966034 87.85723877 602.89614685 87.85827637 603.61373901 C87.84158977 620.8149218 86.57208382 637.83174193 81.27709961 654.29223633 C80.08671981 659.64894541 81.50967339 663.51420741 83.98022461 668.25317383 C90.62740931 682.39284996 90.75784769 698.80349746 90.77319336 714.14770508 C90.77652176 715.34135178 90.77985016 716.53499847 90.78327942 717.76481628 C90.78831234 720.28005594 90.79068888 722.79530219 90.79052734 725.31054688 C90.79269685 729.07995187 90.81084542 732.84905545 90.82983398 736.6184082 C90.95076693 788.09165535 80.5231353 836.71804315 45.60522461 876.31567383 C45.17886719 876.80229492 44.75250977 877.28891602 44.31323242 877.7902832 C23.20562652 901.76998235 -2.94957022 918.85223242 -35.39477539 921.31567383 C-55.43076332 922.20504558 -76.27729393 922.8565959 -95.35180664 915.76879883 C-98.26631666 915.12236831 -99.58473467 915.17488118 -102.39477539 916.31567383 C-104.69467171 918.69653851 -106.54838564 921.36760666 -108.45727539 924.06567383 C-128.42386992 951.11316404 -154.70312276 970.49200619 -188.23852539 977.06958008 C-215.65270286 980.98980746 -243.05844689 978.45131621 -269.39477539 970.31567383 C-269.55333008 970.87254883 -269.71188477 971.42942383 -269.87524414 972.00317383 C-272.7991124 981.56632304 -277.32274142 989.54219854 -286.39794922 994.38452148 C-291.80125119 996.8326713 -297.00183743 998.38628743 -302.83227539 999.44067383 C-303.72116455 999.60535156 -304.61005371 999.7700293 -305.52587891 999.93969727 C-328.84766939 1003.99286915 -354.70545685 1005.63609035 -378.05102539 1000.76098633 C-381.3273185 1000.13849064 -384.49938071 1000.14468966 -387.83227539 1000.12817383 C-389.7484668 1000.1069043 -389.7484668 1000.1069043 -391.70336914 1000.08520508 C-395.4284366 1000.17091973 -398.98147443 1000.70517322 -402.65649414 1001.30786133 C-412.00948005 1002.7084655 -421.3289204 1002.66657524 -430.76977539 1002.62817383 C-431.69586609 1002.62635101 -432.62195679 1002.6245282 -433.57611084 1002.62265015 C-486.11184596 1002.44860065 -486.11184596 1002.44860065 -501.39477539 988.31567383 C-504.2465725 985.10800322 -506.87539252 981.78926438 -509.39477539 978.31567383 C-513.47136388 979.21390519 -517.54509066 980.1130726 -521.60571289 981.08129883 C-522.71172852 981.34426758 -523.81774414 981.60723633 -524.95727539 981.87817383 C-525.98981445 982.12696289 -527.02235352 982.37575195 -528.08618164 982.63208008 C-534.84977679 984.02951709 -541.44467283 984.48130849 -548.32836914 984.51879883 C-549.16457291 984.5244989 -550.00077667 984.53019897 -550.86231995 984.53607178 C-552.62629963 984.54546692 -554.39029643 984.55203376 -556.15429688 984.5559082 C-558.79403167 984.56553437 -561.43295964 984.59657723 -564.07250977 984.62817383 C-598.95377173 984.84611782 -626.27343603 971.95928734 -651.39477539 948.31567383 C-652.05735352 947.71754883 -652.71993164 947.11942383 -653.40258789 946.50317383 C-663.96764687 936.57971762 -671.56195694 923.96904132 -678.39477539 911.31567383 C-678.99676758 910.2199707 -679.59875977 909.12426758 -680.21899414 907.99536133 C-681.62056587 905.44051496 -683.01261133 902.8810541 -684.39477539 900.31567383 C-688.91486741 900.80282155 -690.84129405 902.33000767 -694.01977539 905.50317383 C-711.53798989 921.82755445 -733.87342785 921.01082208 -756.39477539 920.31567383 C-774.54780079 919.2803725 -788.57064645 911.91264428 -801.39477539 899.31567383 C-802.1230957 898.6118457 -802.85141602 897.90801758 -803.60180664 897.18286133 C-852.69160488 846.41251144 -868.73729805 759.28878868 -870.93830872 691.07034302 C-870.9599912 690.39911695 -870.98167369 689.72789089 -871.00401322 689.03632464 C-871.45835381 674.66224033 -871.51228644 660.29710291 -871.45561612 645.91621161 C-871.44274034 642.33623528 -871.43628642 638.75624529 -871.42886353 635.17625427 C-871.41339926 628.21441698 -871.39207938 621.25261051 -871.3682855 614.29079716 C-871.34896807 608.62524642 -871.33153124 602.95969277 -871.31534767 597.29413223 C-871.26405846 579.40166104 -871.20633927 561.50922215 -871.14364568 543.61678745 C-871.09466378 529.56503357 -871.05574836 515.51327221 -871.02141108 501.4614756 C-870.98584923 486.95213663 -870.94302613 472.44283482 -870.89265567 457.93353951 C-870.86462471 449.81958817 -870.83941847 441.7056527 -870.82199669 433.59167099 C-870.80712443 426.69503203 -870.78537987 419.79845491 -870.75512155 412.90186565 C-870.73992141 409.39532724 -870.72763573 405.88885148 -870.72402 402.38228035 C-870.70445865 389.13882403 -870.66657482 376.03083412 -868.89691514 362.88386905 C-868.12297278 356.62258965 -869.28381833 352.35245703 -872.01586914 346.62036133 C-873.71769023 342.54177594 -874.45816112 338.60173085 -875.14477539 334.25317383 C-875.25974365 333.54523682 -875.37471191 332.8372998 -875.49316406 332.10791016 C-877.5716884 318.35827557 -877.54368991 304.64377469 -877.54003906 290.77441406 C-877.54303512 288.49808192 -877.54643867 286.22175029 -877.55021667 283.94541931 C-877.55901653 277.78802303 -877.56139313 271.63064067 -877.56203246 265.47323871 C-877.56274537 261.61762076 -877.56488427 257.76200631 -877.56752968 253.90638924 C-877.57629462 241.1245501 -877.58095104 228.34272212 -877.5801992 215.56088042 C-877.58015925 214.87370003 -877.58011929 214.18651965 -877.58007812 213.47851562 C-877.58003724 212.79048168 -877.57999636 212.10244774 -877.57995424 211.39356429 C-877.57954834 200.25885675 -877.58910705 189.12418312 -877.60321649 177.98948538 C-877.61763877 166.51599411 -877.62430103 155.0425237 -877.62362272 143.56902272 C-877.62336896 137.14386891 -877.62615191 130.7187535 -877.63680077 124.29360771 C-877.64655509 118.24342689 -877.64651116 112.19332058 -877.63928413 106.14313698 C-877.63824727 103.93706528 -877.64054698 101.73098875 -877.64664459 99.52492523 C-877.79155924 43.40984014 -877.79155924 43.40984014 -858.74243164 23.56567383 C-843.57933784 9.03332436 -823.91354887 4.22254699 -803.31274414 4.11254883 C-802.03225945 4.10399872 -802.03225945 4.10399872 -800.72590637 4.09527588 C-798.92324032 4.085877 -797.12055749 4.07931238 -795.31787109 4.07543945 C-792.62768392 4.06583593 -789.93829618 4.03480641 -787.24829102 4.00317383 C-772.7816927 3.90938929 -758.96770878 5.00878941 -745.1973114 9.66088867 C-732.63715282 13.88369725 -721.04897203 13.95250208 -707.89477539 13.56567383 C-703.71789668 13.47128839 -699.5409842 13.39481839 -695.36352539 13.33129883 C-694.34900299 13.31556824 -693.33448059 13.29983765 -692.28921509 13.28363037 C-677.7198929 13.15121535 -663.3510519 15.04576538 -649.01977539 17.56567383 C-647.79299072 17.7803833 -646.56620605 17.99509277 -645.30224609 18.21630859 C-624.54467564 21.98292839 -604.20242526 27.54863795 -585.77368164 37.99536133 C-578.26695035 40.92862743 -570.73290266 39.01234329 -563.08227539 37.37817383 C-531.46935524 30.67670836 -493.44116151 31.6385663 -463.34008789 44.17114258 C-455.10532828 47.58360133 -448.50101736 46.36480281 -440.20727539 43.94067383 C-424.26367927 39.52262471 -408.41188571 38.11896889 -391.89477539 38.12817383 C-390.67443604 38.1275293 -389.45409668 38.12688477 -388.19677734 38.1262207 C-380.93479795 38.16816165 -373.79719463 38.49710586 -366.58227539 39.31567383 C-354.61690747 40.67162854 -344.05124739 41.34547429 -332.44555664 37.33520508 C-309.20943358 29.56999622 -271.88105459 28.98964833 -249.39477539 39.31567383 C-241.49259005 43.7556977 -237.26005314 49.83452705 -234.70727539 58.44067383 C-232.53931125 67.28498207 -231.24449477 76.20635634 -231.39477539 85.31567383 C-230.73477539 85.31567383 -230.07477539 85.31567383 -229.39477539 85.31567383 C-229.3084082 84.66083008 -229.22204102 84.00598633 -229.13305664 83.33129883 C-226.60542057 66.91325905 -218.5554764 53.08832668 -205.14086914 43.14770508 C-177.43371562 24.66313182 -148.10823146 20.79713881 -115.43066406 21.43212891 C-112.73771904 21.48040832 -110.04502639 21.5102224 -107.35180664 21.53833008 C-106.53927933 21.56008804 -105.72675201 21.58184601 -104.88960266 21.60426331 C-98.15834528 21.66301774 -93.87014071 19.55964261 -88.58227539 15.44067383 C-65.44859188 0.03090109 -27.01283035 -0.05869991 0 0 Z M-751.39477539 192.31567383 C-752.6571527 194.84042845 -752.49333943 196.62767849 -752.45727539 199.44067383 C-752.44825195 200.35075195 -752.43922852 201.26083008 -752.42993164 202.19848633 C-752.41833008 202.8971582 -752.40672852 203.59583008 -752.39477539 204.31567383 C-751.40477539 204.31567383 -750.41477539 204.31567383 -749.39477539 204.31567383 C-749.39477539 200.68567383 -749.39477539 197.05567383 -749.39477539 193.31567383 C-750.05477539 192.98567383 -750.71477539 192.65567383 -751.39477539 192.31567383 Z M-183.39477539 573.31567383 C-183.06477539 574.96567383 -182.73477539 576.61567383 -182.39477539 578.31567383 C-181.30422852 578.25508789 -180.21368164 578.19450195 -179.09008789 578.13208008 C-178.36934082 578.09203857 -177.64859375 578.05199707 -176.90600586 578.01074219 C-176.1185498 577.96699463 -175.33109375 577.92324707 -174.51977539 577.87817383 C-167.76977539 577.50317383 -161.01977539 577.12817383 -154.26977539 576.75317383 C-153.48231934 576.70942627 -152.69486328 576.66567871 -151.88354492 576.62060547 C-150.05395508 576.51896159 -148.22436523 576.41731771 -146.39477539 576.31567383 C-146.39477539 575.32567383 -146.39477539 574.33567383 -146.39477539 573.31567383 C-158.60477539 573.31567383 -170.81477539 573.31567383 -183.39477539 573.31567383 Z M-548.39477539 581.31567383 C-548.39477539 582.30567383 -548.39477539 583.29567383 -548.39477539 584.31567383 C-540.35252899 585.96313664 -532.39043807 586.85581979 -524.20727539 587.44067383 C-523.06452148 587.52704102 -521.92176758 587.6134082 -520.74438477 587.70239258 C-517.96152293 587.9119805 -515.17838567 588.11631797 -512.39477539 588.31567383 C-511.80407525 586.36964109 -511.80407525 586.36964109 -511.39477539 584.31567383 C-513.01162628 582.69882294 -514.83111568 583.11176658 -517.06665039 583.03442383 C-518.03594482 582.99760498 -519.00523926 582.96078613 -520.00390625 582.92285156 C-521.04039307 582.88748291 -522.07687988 582.85211426 -523.14477539 582.81567383 C-531.58356556 582.4927859 -539.98245559 582.07455872 -548.39477539 581.31567383 Z " fill="#000000" transform="translate(877.394775390625,-0.315673828125)"/>
<path d="M0 0 C1.56096909 -0.00642769 1.56096909 -0.00642769 3.1534729 -0.01298523 C5.34335611 -0.01868661 7.53325825 -0.01926006 9.72314453 -0.01489258 C12.99676687 -0.01175923 16.26945935 -0.03515363 19.54296875 -0.06054688 C37.00438286 -0.11399632 54.72718912 0.85820073 71.5390625 5.98828125 C72.39290527 6.24174316 73.24674805 6.49520508 74.12646484 6.75634766 C99.25707519 14.57653199 119.1548582 31.13128474 131.69140625 54.19042969 C140.09262333 70.46146156 143.6471517 88.99216797 143.97167969 107.18188477 C143.99183388 108.15240469 144.01198807 109.12292461 144.03275299 110.12285423 C144.09768289 113.3708863 144.15499335 116.6189888 144.2109375 119.8671875 C144.24197697 121.58097186 144.24197697 121.58097186 144.27364349 123.32937813 C144.78682576 152.14593192 144.88532597 180.96411258 144.9028821 209.78460157 C144.9076816 217.51299651 144.92548123 225.24122087 144.9539578 232.96956438 C144.97564051 239.07356475 144.98566338 245.17751682 144.98699832 251.28155524 C144.98803256 254.87733254 144.99365074 258.47294285 145.01181793 262.0686779 C145.03152788 266.03794836 145.02698331 270.00700038 145.02050781 273.97631836 C145.0297226 275.12377029 145.03893738 276.27122223 145.0484314 277.45344543 C144.96745728 293.38016162 141.47813983 309.03619786 130.23828125 320.75390625 C129.71878906 321.264375 129.19929687 321.77484375 128.6640625 322.30078125 C130.11330543 325.44199745 131.90110481 328.0396402 133.9765625 330.80078125 C144.73503755 346.12210227 146.10622306 363.51093036 146.31640625 381.609375 C146.34837018 383.52088016 146.38103128 385.43237376 146.41429138 387.34385681 C146.52663961 394.32923348 146.59812732 401.31483053 146.6640625 408.30078125 C146.67400474 409.34783218 146.67400474 409.34783218 146.68414783 410.41603565 C146.90949644 434.31388825 147.05300345 458.2121865 147.18147409 482.11072576 C147.23113407 491.31175377 147.28615633 500.51274782 147.34114373 509.71374524 C147.38362324 516.85734418 147.42477745 524.00095086 147.4657352 531.14455867 C147.47546924 532.84009219 147.48524505 534.53562547 147.49506497 536.23115849 C147.50924566 538.68186073 147.52326675 541.13256383 147.5372467 543.58326721 C147.54411215 544.76670203 147.54411215 544.76670203 147.55111629 545.97404462 C147.57279477 549.8074664 147.59124608 553.64085301 147.60251713 557.47432041 C147.60707182 558.93796889 147.61172658 560.40161706 147.6164856 561.86526489 C147.61877566 562.57436388 147.62106573 563.28346287 147.62342519 564.01404971 C147.64404266 568.80207418 147.71981181 573.5866354 147.81588745 578.37374878 C147.83431418 579.63871154 147.85274092 580.9036743 147.87172604 582.20696926 C147.9060557 584.52321993 147.95557509 586.83932954 148.02501011 589.15479374 C148.13482484 598.68436827 145.97853191 607.29657621 140.6640625 615.30078125 C129.22586749 622.9104895 109.46206331 622.54446198 96.1640625 622.61328125 C95.40609375 622.61875977 94.648125 622.62423828 93.8671875 622.62988281 C82.90921894 622.48699563 82.90921894 622.48699563 79.02734375 618.70703125 C77.86199119 616.59293441 76.76633653 614.44843286 75.6640625 612.30078125 C75.30921783 611.67285172 74.95437317 611.04492218 74.58877563 610.39796448 C70.18555384 601.40482134 70.99611625 591.47315278 70.9375 581.703125 C70.90999864 579.46563745 70.88124644 577.22816502 70.85140991 574.9907074 C70.76238986 567.55686252 70.71510352 560.12301884 70.67648125 552.6887846 C70.66355333 550.20287232 70.64993171 547.71696443 70.63624573 545.23105621 C70.51742496 523.33319507 70.43840629 501.43517022 70.3671875 479.53710938 C70.36374785 478.48843791 70.3603082 477.43976645 70.35676432 476.35931706 C70.31813935 464.48865886 70.28535911 452.61801424 70.26269531 440.74731445 C70.24431797 431.16057937 70.21540082 421.5739368 70.1746906 411.98726982 C70.15378738 406.9590607 70.13818608 401.93096672 70.13588333 396.90271187 C70.13372801 392.20949997 70.11776951 387.51653361 70.09149361 382.82339668 C70.08435118 381.11467851 70.0821748 379.40593045 70.08559608 377.69720078 C70.25519802 360.1732513 70.25519802 360.1732513 63.6640625 344.30078125 C61.59675237 343.3439335 61.59675237 343.3439335 59.2890625 343.23828125 C58.53882813 343.14417969 57.78859375 343.05007813 57.015625 342.953125 C53.6178055 343.45546044 52.13835019 344.95113177 49.6640625 347.30078125 C44.01904786 359.20166989 45.1068568 373.22938216 45.16577148 386.04394531 C45.16194198 388.41251974 45.15631758 390.78109184 45.14904785 393.1496582 C45.1371543 398.22248258 45.13754225 403.29509976 45.14764214 408.36792755 C45.16195115 415.7140461 45.15259416 423.05997362 45.13612295 430.40606782 C45.10974749 442.34461033 45.09879995 454.2831096 45.09985352 466.22167969 C45.09991184 466.93404052 45.09997016 467.64640136 45.10003025 468.38034889 C45.1002961 471.26672267 45.10061339 474.15309644 45.10099351 477.03947021 C45.10196077 484.99343645 45.10062986 492.94740139 45.09790039 500.90136719 C45.09754055 501.97040615 45.09754055 501.97040615 45.09717344 503.06104186 C45.09275991 514.96401168 45.07650299 526.86694148 45.0526796 538.76988769 C45.03741051 546.74424078 45.03799442 554.71845253 45.05015743 562.69281816 C45.05487629 567.65585596 45.04733673 572.61882203 45.03661346 577.58184814 C45.03421271 579.87674767 45.03692355 582.17165933 45.04522133 584.4665451 C45.05589967 587.60843924 45.04804756 590.74978551 45.03587341 593.8916626 C45.04344947 594.79099903 45.05102552 595.69033547 45.05883116 596.61692452 C45.00410423 603.31618827 44.56216538 611.60635887 40.28294653 617.06139016 C33.37685674 623.11555623 24.07456985 621.5441198 15.4765625 621.55078125 C14.70562256 621.55145599 13.93468262 621.55213074 13.14038086 621.55282593 C-19.61643355 621.50706902 -19.61643355 621.50706902 -29.3359375 613.30078125 C-34.30143349 606.27500953 -35.46156644 599.40678259 -35.45931911 590.94813347 C-35.46044641 590.21689886 -35.46157371 589.48566424 -35.46273517 588.73227101 C-35.46517731 586.2869734 -35.46036264 583.8417469 -35.45542908 581.39645386 C-35.45538468 579.64354997 -35.45571763 577.89064604 -35.45639956 576.13774228 C-35.45670465 571.36341926 -35.45016723 566.58912797 -35.44197436 561.81481281 C-35.43722903 558.78708121 -35.43427518 555.75935298 -35.431898 552.73161864 C-35.39719977 509.98222419 -35.12330205 467.23504609 -34.7870701 424.48711366 C-34.70378841 413.88532725 -34.62436602 403.28351262 -34.54493856 392.68169676 C-34.4024347 373.67661083 -34.25676397 354.67155062 -34.10913086 335.66650391 C-33.96808963 317.50962032 -33.82932056 299.3527213 -33.69311523 281.19580078 C-33.68471965 280.07666476 -33.67632407 278.95752873 -33.66767407 277.80447949 C-33.65928873 276.68667041 -33.65090339 275.56886132 -33.64226395 274.41717923 C-33.48409091 253.33379538 -33.32385906 232.25042758 -33.16265889 211.16706667 C-33.11482255 204.90639767 -33.06731411 198.6457263 -33.02010817 192.38505251 C-32.7616158 158.11661533 -32.7616158 158.11661533 -32.62822819 142.69809151 C-32.61613202 141.2993849 -32.61613202 141.2993849 -32.60379149 139.87242159 C-32.57114347 136.10692192 -32.53840233 132.34142317 -32.50522461 128.57592814 C-32.39861116 116.45480508 -32.30785754 104.33370463 -32.2340767 92.21233604 C-32.18118397 83.60850371 -32.11799431 75.00478339 -32.04776291 66.40107539 C-32.0063998 61.27621553 -31.97008271 56.15143772 -31.94648468 51.02646279 C-31.9245278 46.27369273 -31.88893631 41.52121807 -31.84302767 36.76862088 C-31.82867081 35.03138769 -31.81928979 33.29410478 -31.8153805 31.55681667 C-31.7621106 10.72164976 -31.7621106 10.72164976 -26.3984375 3.80078125 C-18.41018387 -0.11183277 -8.74442436 -0.00827819 0 0 Z " fill="#FDFDFD" transform="translate(430.3359375,324.69921875)"/>
<path d="M0 0 C22.76359549 18.04515908 33.81934107 44.95899549 37.125 73.1875 C37.58719294 79.23988146 37.55003231 85.30103684 37.5234375 91.3671875 C37.52546748 93.03907395 37.52838651 94.71095953 37.53213501 96.38284302 C37.53650769 99.85004283 37.53028854 103.31700762 37.51611328 106.78417969 C37.49894325 111.19493537 37.50894398 115.60514624 37.52683067 120.01588249 C37.53773808 123.45457981 37.53419187 126.89315056 37.5264473 130.33185196 C37.52446864 131.95751132 37.52682086 133.58318276 37.53388596 135.20882797 C37.57903533 148.49736186 36.82261099 161.40959481 28.125 172.1875 C20.84805831 178.95977683 9.67911636 180.79313629 0.05078125 180.47265625 C-11.02108006 179.39355628 -20.2703475 177.18934342 -28.125 169.0625 C-31.66432317 164.67451078 -33.27949089 159.53040998 -34.875 154.1875 C-35.05063477 153.63900391 -35.22626953 153.09050781 -35.40722656 152.52539062 C-36.09045655 149.11066707 -36.07226108 145.69994377 -36.12109375 142.23046875 C-36.15409005 140.62564678 -36.18730053 139.02082919 -36.22070312 137.41601562 C-36.26760501 134.91320484 -36.31193604 132.41040364 -36.35180664 129.9074707 C-35.58159069 111.15947436 -35.58159069 111.15947436 -41.375 94.3125 C-44.35977119 91.77544449 -45.28005894 91.25485182 -49.1875 90.8125 C-52.95514173 90.88099351 -52.95514173 90.88099351 -55.6875 93.25 C-61.69123208 101.3121545 -61.04559544 112.46878981 -61.19140625 122.09765625 C-61.22284981 123.86230225 -61.22284981 123.86230225 -61.25492859 125.66259766 C-61.32147872 129.52499614 -61.38039007 133.38745095 -61.4375 137.25 C-61.45768188 138.56974823 -61.47786377 139.88949646 -61.49865723 141.24923706 C-61.63449887 150.21266256 -61.74979694 159.17626389 -61.8516922 168.14013672 C-61.86710661 169.49414298 -61.88272319 170.84814696 -61.89855194 172.20214844 C-61.99412335 180.38298561 -62.0682706 188.56352672 -62.10617065 196.74484253 C-62.11862711 199.06366186 -62.13606534 201.38246029 -62.15872192 203.70120239 C-62.18856194 206.93765346 -62.19848044 210.17358339 -62.203125 213.41015625 C-62.21542648 214.3441626 -62.22772797 215.27816895 -62.24040222 216.24047852 C-62.21481636 223.93419597 -60.99618539 231.41650375 -57.1875 238.1875 C-50.90234832 243.62330685 -42.808029 243.83895894 -34.88671875 244.43359375 C-32.54751378 244.63331994 -30.20832145 244.83319435 -27.86914062 245.03320312 C-24.21625716 245.33158283 -20.56303359 245.62495774 -16.90942383 245.91430664 C-13.35899631 246.19961527 -9.81048254 246.50338113 -6.26171875 246.80859375 C-5.18427902 246.88790634 -4.10683929 246.96721893 -2.99674988 247.04893494 C7.44179002 247.95831527 18.27924292 250.84690233 26.125 258.1875 C33.50153128 268.44971589 33.4670009 281.16118144 33.375 293.3125 C33.36895752 294.58843018 33.36291504 295.86436035 33.35668945 297.17895508 C33.04854646 326.61688208 33.04854646 326.61688208 26.4375 338.125 C20.78756723 343.16412922 13.92832619 343.73509291 6.6875 343.6875 C5.26993408 343.68762085 5.26993408 343.68762085 3.82373047 343.68774414 C-8.74965765 343.45447343 -21.2292536 341.60003255 -33.66967773 339.87890625 C-34.53863174 339.76221085 -35.40758575 339.64551544 -36.3028717 339.52528381 C-37.93386695 339.30527576 -39.56369647 339.07634759 -41.19187927 338.83641052 C-47.17324709 338.03425081 -54.02521266 337.31263991 -59.25 340.75 C-64.4613121 348.56696815 -65.02401068 357.21038858 -65.03613281 366.35473633 C-65.04109772 367.25799149 -65.04606262 368.16124664 -65.05117798 369.09187317 C-65.0657335 372.06776706 -65.07259025 375.04360767 -65.078125 378.01953125 C-65.0838815 380.0968984 -65.08963917 382.17426555 -65.09539795 384.25163269 C-65.10588886 388.60338589 -65.11174415 392.95512071 -65.11523438 397.30688477 C-65.12071775 402.8683492 -65.14475068 408.42956865 -65.17320633 413.99095631 C-65.19187789 418.28135375 -65.1970407 422.57169267 -65.19857025 426.8621273 C-65.20158664 428.91173328 -65.20958073 430.96133846 -65.22275543 433.01090431 C-65.23991196 435.88481663 -65.23791238 438.75813658 -65.23144531 441.63208008 C-65.2406601 442.46926575 -65.24987488 443.30645142 -65.2593689 444.16900635 C-65.20377617 452.10122451 -63.5342072 459.34573772 -57.875 465.1875 C-54.73628812 466.75685594 -52.33644178 466.53951103 -48.875 466.1875 C-44.23002549 462.98762867 -43.34136418 459.87015639 -42.27459717 454.65371704 C-41.6445931 450.76548438 -41.48662492 446.91309672 -41.3828125 442.98046875 C-41.31693173 441.24151647 -41.2505085 439.50258467 -41.18359375 437.76367188 C-41.08914913 435.07200013 -41.0001583 432.38041023 -40.92138672 429.68823242 C-40.52018406 416.56746391 -39.98526674 402.63673966 -30.875 392.1875 C-20.83762193 385.83732203 -7.17006739 387.33282342 4.0625 389.4375 C13.86055138 391.65533735 22.87376807 394.18015928 28.75 402.8125 C34.61638579 413.09640495 34.57135464 423.4418417 34.5234375 434.9609375 C34.52546432 436.69235354 34.52838078 438.42376873 34.53213501 440.15518188 C34.53654158 443.77785397 34.53018928 447.40030321 34.51611328 451.02294922 C34.49915106 455.60577689 34.50879026 460.18807222 34.52683067 464.77087975 C34.53782458 468.348885 34.53414983 471.92677035 34.5264473 475.50477982 C34.52448127 477.19081311 34.52677383 478.87685822 34.53388596 480.56287766 C34.63049945 509.9336109 28.71502948 540.63538218 7.78515625 562.6484375 C-5.80597914 575.57397226 -23.6310401 581.76019887 -42.2265625 581.4375 C-70.0484932 579.5310722 -93.00263065 562.04016032 -111.5 542.4375 C-125.83200097 525.93633131 -136.09257567 505.49552725 -140.875 484.1875 C-141.03581055 483.5171875 -141.19662109 482.846875 -141.36230469 482.15625 C-144.04199072 470.48718423 -144.05523216 458.71878563 -144.00170898 446.81445312 C-143.99764759 445.06186684 -143.99362001 443.30928047 -143.98962307 441.55669403 C-143.91619775 419.16857288 -143.49827975 396.78371001 -143.1002152 374.3995266 C-142.98889935 368.10171865 -142.88136956 361.80384578 -142.77330017 355.50598145 C-142.59151618 344.94356207 -142.40715026 334.38118992 -142.22094727 323.81884766 C-142.03136539 313.06465668 -141.84409445 302.3104288 -141.65942383 291.55615234 C-141.64804125 290.89330744 -141.63665867 290.23046254 -141.62493116 289.54753143 C-141.60788063 288.55459619 -141.60788063 288.55459619 -141.59048563 287.54160166 C-141.36640558 274.4931935 -141.13989991 261.44482817 -140.91265178 248.39647484 C-140.84863493 244.71256902 -140.78502722 241.02865634 -140.72151375 237.34474182 C-140.30145216 213.02612643 -139.86702761 188.70922681 -139.20268345 164.39585114 C-138.90836573 153.5067639 -138.74151448 142.61897614 -138.62890625 131.7265625 C-138.6201109 130.89602159 -138.61131555 130.06548069 -138.60225368 129.20977187 C-138.52730101 122.12802359 -138.4547321 115.04627773 -138.39819336 107.96435547 C-138.09514444 70.91162841 -136.638932 35.99098176 -108.875 8.1875 C-108.15570313 7.45660156 -107.43640625 6.72570312 -106.6953125 5.97265625 C-77.04298251 -22.28097893 -32.22393438 -24.36198429 0 0 Z " fill="#FDFDFD" transform="translate(355.875,347.8125)"/>
<path d="M0 0 C22.22725844 17.0783666 35.05334094 40.40723689 39.0090332 68.078125 C40.47740443 80.47077166 40.12963203 93.08473142 40.09228516 105.54589844 C40.08070158 109.60384204 40.10120858 113.6609274 40.13020229 117.71875858 C40.14862925 120.883737 40.14826083 124.04851094 40.14256477 127.21352959 C40.14241293 128.70967263 40.1483421 130.20583075 40.16085625 131.70192146 C40.24181942 142.94270824 38.79977764 152.48894721 31.60717773 161.50708008 C22.73821428 169.74002225 10.80830715 171.68170789 -0.79125977 171.63989258 C-1.68135742 171.65600586 -2.57145508 171.67211914 -3.48852539 171.6887207 C-10.70766485 171.693994 -17.22670663 170.67268243 -23.10375977 166.26489258 C-31.29519561 155.570518 -32.63043285 144.72518827 -32.91625977 131.63989258 C-32.57664805 112.51827102 -32.57664805 112.51827102 -37.35375977 94.32739258 C-40.9705171 91.71529006 -44.99777509 91.78289449 -49.35375977 92.32739258 C-54.21472055 96.10813985 -55.9163683 99.66657809 -56.89550781 105.62304688 C-57.6305229 111.82352736 -57.47037823 118.05040923 -57.43579102 124.28442383 C-57.43123503 125.68829757 -57.42699684 127.09217238 -57.42304993 128.49604797 C-57.41045055 132.30665434 -57.3901734 136.11718281 -57.36762238 139.927742 C-57.35364987 142.3464152 -57.34150566 144.76509184 -57.32977295 147.18377686 C-57.28300116 156.51598875 -57.21431724 165.84775722 -57.11802483 175.17959404 C-57.07291056 179.57039723 -57.03358858 183.96109074 -57.00732422 188.35205078 C-56.98114142 192.70743206 -56.94073951 197.06247372 -56.8905735 201.41764259 C-56.87413041 203.04522323 -56.86247806 204.67286094 -56.85614586 206.30051231 C-57.06743002 224.51046954 -57.06743002 224.51046954 -49.35375977 240.32739258 C-45.81986613 242.70453873 -43.00133738 242.44392868 -38.83422852 242.11254883 C-38.18447556 242.0613942 -37.5347226 242.01023956 -36.86528015 241.95753479 C-27.23733788 241.14055899 -17.66553919 239.73551787 -8.09765625 238.40869141 C20.9603941 234.40173628 20.9603941 234.40173628 30.64624023 240.32739258 C39.84688181 247.8327144 41.99931805 259.12550669 43.64624023 270.32739258 C43.99155853 274.36821549 44.10782322 278.40262571 44.20483398 282.45629883 C44.24072128 283.71181046 44.27660858 284.96732208 44.31358337 286.26087952 C44.44291581 290.94932835 44.54618553 295.63823864 44.64624023 300.32739258 C44.66685768 301.29129662 44.68747513 302.25520065 44.70871735 303.2483139 C45.03505274 318.68800218 45.31243104 334.12846756 45.57617188 349.56933594 C45.66337403 354.66932832 45.75354867 359.76925309 45.84667969 364.86914062 C46.15948892 382.02135935 46.43198574 399.17364909 46.64624023 416.32739258 C46.66103172 417.46609047 46.67582321 418.60478836 46.69106293 419.77799225 C46.7739074 426.29663473 46.83770572 432.81496844 46.87313652 439.33404732 C46.8856401 441.2861996 46.90314403 443.23832831 46.92640877 445.190382 C47.32150303 479.97349877 38.10021442 513.46989205 13.65405273 539.17895508 C11.58555381 541.32720317 11.58555381 541.32720317 9.69702148 543.83520508 C-0.59093492 556.33752162 -16.45463799 565.35498572 -31.35375977 571.32739258 C-32.42754883 571.7630957 -33.50133789 572.19879883 -34.60766602 572.64770508 C-51.93457469 578.61099735 -71.25086678 576.57197898 -87.66625977 569.01489258 C-105.98527829 559.15310446 -119.23330053 542.01148744 -125.72485352 522.42993164 C-130.37139557 506.89576233 -131.51799705 491.40860309 -131.59204102 475.27661133 C-131.59611654 474.51869608 -131.60019207 473.76078083 -131.6043911 472.97989845 C-131.62511647 468.97081413 -131.63947803 464.9617627 -131.64892578 460.95263672 C-131.65998636 456.85108974 -131.6944212 452.75008569 -131.73409748 448.64873028 C-131.7604422 445.45792243 -131.76863308 442.267241 -131.77220726 439.076334 C-131.777024 437.56589893 -131.78849419 436.05546757 -131.80724525 434.54514122 C-131.95698817 421.68986252 -130.58094079 408.1498756 -121.35375977 398.32739258 C-111.43876316 390.39888035 -100.01531354 388.81775723 -87.66625977 388.95239258 C-86.05267578 388.93499023 -86.05267578 388.93499023 -84.40649414 388.91723633 C-77.30395389 388.94333262 -71.34185072 389.46394328 -65.40063477 393.72973633 C-58.39187036 402.02625564 -56.30477146 413.05179431 -56.10766602 423.64770508 C-56.07469856 425.0852105 -56.04148745 426.52271036 -56.00805664 427.96020508 C-55.96097264 430.19779276 -55.91656119 432.4353628 -55.87695312 434.6730957 C-55.71572641 443.37740725 -55.3461152 451.80868099 -53.35375977 460.32739258 C-53.21268799 461.05845215 -53.07161621 461.78951172 -52.92626953 462.54272461 C-52.4967111 464.57225083 -52.4967111 464.57225083 -50.16625977 465.57739258 C-46.91581884 466.44417682 -44.70207015 466.80572263 -41.35375977 466.32739258 C-35.91879886 462.91722103 -33.92213439 459.45392312 -32.35375977 453.32739258 C-31.32504057 447.02476162 -31.22225435 440.74495358 -31.27563477 434.37426758 C-31.28004578 433.39818542 -31.28445679 432.42210327 -31.28900146 431.41644287 C-31.2999261 429.24310972 -31.31342527 427.06978844 -31.32910156 424.89648438 C-31.35076488 421.76088007 -31.36602212 418.62531394 -31.37862396 415.48966217 C-31.4077078 408.39105031 -31.46055865 401.29299582 -31.53768158 394.1947403 C-31.57744271 390.49381813 -31.60956263 386.79315253 -31.62475586 383.09204102 C-31.64000754 379.43421309 -31.67451632 375.77701437 -31.72206879 372.11946869 C-31.7436935 370.09522527 -31.74621613 368.07080579 -31.74810791 366.04644775 C-31.87121413 358.26560637 -32.63407148 351.28856595 -36.35375977 344.32739258 C-42.51589346 338.9355256 -48.53950928 339.02767672 -56.35375977 339.32739258 C-59.49717877 339.59112596 -62.61198735 339.99130089 -65.73657227 340.42114258 C-67.4995685 340.6491974 -69.26259017 340.87705567 -71.02563477 341.10473633 C-73.74390436 341.46330204 -76.46168572 341.82509237 -79.17895508 342.19116211 C-112.43178971 346.63980307 -112.43178971 346.63980307 -121.30297852 340.28833008 C-130.84569893 331.1636717 -133.29305621 317.66762554 -133.60515404 304.98692894 C-133.62008211 304.19943575 -133.63501019 303.41194256 -133.65039062 302.60058594 C-133.66965921 301.74717936 -133.6889278 300.89377277 -133.70878029 300.01450539 C-133.77112996 297.16966237 -133.82651035 294.32473816 -133.88110352 291.47973633 C-133.90152143 290.48052595 -133.92193935 289.48131557 -133.942976 288.4518261 C-134.49032101 261.6005798 -134.70868705 234.74551255 -134.91625977 207.88989258 C-134.92630539 206.61013802 -134.93635101 205.33038345 -134.94670105 204.01184845 C-135.06766904 188.59978698 -135.18024658 173.18768359 -135.28298759 157.77548981 C-135.32667436 151.23416854 -135.37302018 144.69287945 -135.42317677 138.15160465 C-135.49478746 128.80616741 -135.55136822 119.46085706 -135.58493042 110.11520386 C-135.59576738 107.22215307 -135.61336234 104.32927967 -135.63748169 101.43630981 C-135.92135745 66.1042566 -131.04534362 34.36187153 -106.16625977 7.63989258 C-77.02680663 -20.33398244 -32.5538071 -23.74693513 0 0 Z " fill="#FDFDFD" transform="translate(717.353759765625,346.672607421875)"/>
<path d="M0 0 C2.88005382 -0.100081 5.75767684 -0.15961446 8.63916016 -0.20019531 C9.54553223 -0.21816162 10.4519043 -0.23612793 11.38574219 -0.25463867 C19.11844997 -0.24406909 27.6558699 0.68734549 33.51416016 6.23730469 C34.10201294 6.84077225 34.68986572 7.44423981 35.29553223 8.06599426 C37.245223 10.094989 37.245223 10.094989 39.21154785 11.68095398 C44.37107907 16.75350396 44.97260889 21.67237407 45.06298828 28.56860352 C45.05872302 32.8001549 44.9595682 37.02667136 44.85791016 41.25683594 C44.82566383 43.71340566 44.79672358 46.17002042 44.77062988 48.62666321 C44.70225164 54.3881953 44.61029206 60.14878589 44.50390625 65.909729 C44.31241024 76.38217256 44.18372619 86.85516913 44.05754089 97.32857299 C43.81707026 117.22234851 43.54838839 137.1156501 43.26025391 157.00878906 C43.24260986 158.22816217 43.22496582 159.44753528 43.20678711 160.70385909 C43.04472305 171.89151678 42.88113191 183.07915207 42.71734619 194.26678467 C41.63199759 262.6265658 41.63199759 262.6265658 41.13439941 330.9922123 C41.12987684 333.50769942 41.12296043 336.02318378 41.11325073 338.53865623 C41.02585572 365.27985531 44.13336928 390.59768173 49.83984375 416.73876953 C50.47839581 419.85211114 50.92986565 422.95975053 51.32666016 426.11230469 C51.98666016 426.11230469 52.64666016 426.11230469 53.32666016 426.11230469 C53.44275635 425.46181152 53.55885254 424.81131836 53.6784668 424.14111328 C54.58288145 419.11539995 55.51705377 414.097839 56.51025391 409.08886719 C60.01373308 391.41234807 63.28199613 374.01659418 63.87594604 355.97349548 C63.91643786 354.80726463 63.95692968 353.64103378 63.99864852 352.4394626 C64.44893313 338.63499474 64.61044571 324.82637096 64.7628274 311.01614177 C64.80664846 307.12061287 64.8545815 303.22513445 64.90223694 299.32965088 C64.9632021 294.33136129 65.0239171 289.33306954 65.08313298 284.33475888 C65.22962328 271.98636956 65.3881637 259.63817208 65.55368042 247.2900238 C65.57172083 245.94198551 65.57172083 245.94198551 65.59012569 244.56671412 C65.68897727 237.18330253 65.78832105 229.79989759 65.88790718 222.41649587 C65.97704054 215.80721157 66.06574259 209.19792167 66.15380859 202.58862305 C66.16635999 201.64705197 66.17891139 200.7054809 66.19184314 199.73537736 C66.39519422 184.42941816 66.57619999 169.12326606 66.74975313 153.81694353 C66.92915091 138.04520139 67.13456994 122.27394697 67.36354625 106.50284618 C67.50352803 96.80239541 67.62311178 87.10213874 67.71607558 77.40112149 C67.78158927 70.76265751 67.87225303 64.12483224 67.98251267 57.48696191 C68.04527294 53.66353403 68.09710421 49.84080486 68.11880302 46.01690483 C68.1426544 41.86350181 68.21984273 37.71273668 68.30178833 33.56007385 C68.29936243 31.76663924 68.29936243 31.76663924 68.29688752 29.93697363 C68.57530586 19.7431045 72.58754361 12.90604384 78.76416016 4.98730469 C85.72520234 -0.10614081 94.80504509 0.77118085 103.05273438 0.79663086 C105.1901368 0.79978767 107.32614709 0.77628524 109.46337891 0.75097656 C127.33773663 0.66732527 127.33773663 0.66732527 134.07666016 6.48730469 C134.86488643 7.67105668 135.60991951 8.8839512 136.32666016 10.11230469 C137.13296875 11.26666016 137.13296875 11.26666016 137.95556641 12.44433594 C142.44809098 20.06390777 142.68418691 26.70750518 142.52232361 35.36582947 C142.51089449 36.55177985 142.49946537 37.73773023 142.48768991 38.95961851 C142.44802389 42.67751223 142.38871124 46.39472399 142.32666016 50.11230469 C142.29682038 52.36285609 142.26762743 54.61341617 142.23913765 56.86398506 C142.1434729 63.86590909 142.01435373 70.86706724 141.88354492 77.8684082 C141.83569788 80.52701472 141.78804526 83.18562408 141.7406311 85.84423828 C141.6390779 91.5174861 141.5357882 97.19070002 141.4312458 102.86389351 C141.27895115 111.12892964 141.12949471 119.39401537 140.98065483 127.65911435 C140.73743933 141.16104236 140.49210525 154.66293097 140.24536133 168.16479492 C140.00868689 181.11594882 139.77286276 194.06711767 139.53833008 207.01831055 C139.5239605 207.81179539 139.50959093 208.60528024 139.49478591 209.42281009 C139.39377943 215.00094814 139.29283035 220.57908723 139.19189453 226.15722656 C139.07797676 232.45255061 138.96404258 238.74787435 138.8500824 245.04319763 C138.83616821 245.81192066 138.82225402 246.58064368 138.80791818 247.37266134 C138.61965877 257.77243589 138.43065436 268.17219661 138.24099728 278.57194575 C138.20243251 280.68764345 138.16391662 282.80334202 138.12542087 284.91904098 C138.10653508 285.95698127 138.10653508 285.95698127 138.08726775 287.01589006 C138.06201767 288.40368311 138.03676984 289.79147621 138.01152429 291.17926935 C137.93735535 295.25433303 137.86279454 299.32938933 137.78796615 303.40444096 C137.54337693 316.73705452 137.30763711 330.06971987 137.09747145 343.40291772 C137.02433535 348.0223701 136.94908432 352.64178882 136.87443912 357.261217 C136.81686823 360.8968385 136.76305389 364.53250187 136.70942783 368.16818333 C136.55549549 378.0418773 136.36209896 387.90596061 135.85743713 397.76881409 C135.81988373 398.51175246 135.78233032 399.25469084 135.74363893 400.0201425 C135.34652527 407.03404284 134.35486697 413.88304784 133.13916016 420.79980469 C132.80924072 422.7138208 132.80924072 422.7138208 132.47265625 424.66650391 C125.84660086 461.92935918 114.12190445 502.68263387 83.43994141 527.64746094 C75.47001205 533.17190365 68.1316867 536.7206112 58.32666016 535.11230469 C39.99648124 530.88828053 27.41462169 515.61789625 17.77246094 500.45654297 C-4.17360746 464.87293123 -19.06160649 425.88889573 -26.48583984 384.79980469 C-26.66840332 383.79054932 -26.8509668 382.78129395 -27.0390625 381.74145508 C-27.51305626 378.94716776 -27.94200544 376.15003655 -28.34909832 373.34533787 C-28.57452676 371.79282488 -28.8040354 370.24090111 -29.03672493 368.6894598 C-31.63552239 350.98540587 -32.12697219 333.46365519 -32.10949099 315.61249495 C-32.10886774 311.62360115 -32.12553796 307.63476833 -32.1396637 303.64590454 C-32.16432903 295.87313181 -32.17281598 288.10042738 -32.17450083 280.32761872 C-32.17593581 274.01011009 -32.18214676 267.69262366 -32.19160271 261.37512207 C-32.2179306 243.41769616 -32.23187194 225.46032355 -32.22961129 207.50287819 C-32.22949142 206.53964323 -32.22937155 205.57640827 -32.22924805 204.58398438 C-32.2291254 203.61956106 -32.22900276 202.65513775 -32.2288764 201.66148949 C-32.22765319 185.98127344 -32.2564816 170.30127214 -32.29866315 154.62111831 C-32.34175093 138.47578089 -32.36247482 122.33054842 -32.35988182 106.18515205 C-32.35888717 97.13801065 -32.36707648 88.09109571 -32.39941597 79.04400635 C-32.42672355 71.35666871 -32.43326108 63.66966077 -32.4128877 55.98229563 C-32.40309593 52.0639103 -32.40290705 48.14615783 -32.42894745 44.22783279 C-32.45255932 40.63815167 -32.44823606 37.04960478 -32.42209505 33.45995116 C-32.41532262 31.55402206 -32.43796275 29.6480576 -32.46181399 27.7422657 C-32.36676808 19.85376145 -30.83323656 15.10322235 -25.67333984 9.11230469 C-25.0837442 8.41676357 -24.49414856 7.72122246 -23.88668638 7.00460434 C-18.70137021 1.25719567 -12.46241773 0.60678808 -5.01464844 0.20898438 C-3.34307253 0.13995997 -1.67152614 0.07021936 0 0 Z " fill="#FAFAFA" transform="translate(69.67333984375,329.8876953125)"/>
<path d="M0 0 C15.47770665 13.70358217 24.62771692 30.89985463 26.28903198 51.60165405 C26.40810594 55.32472941 26.44219538 59.0367686 26.43359375 62.76171875 C26.43817426 64.12783563 26.44348524 65.49395023 26.44947815 66.86006165 C26.45832 69.69627362 26.4560867 72.53220262 26.44604492 75.3684082 C26.43451644 78.97243453 26.45487038 82.57548654 26.48396206 86.17938519 C26.50244231 88.99099236 26.5020092 91.80237045 26.49632454 94.61402321 C26.49610039 96.57854514 26.51285936 98.54304609 26.53013611 100.50749207 C26.4482389 111.11715888 24.5976746 120.38371212 17.03125 128.22265625 C5.66289347 138.16996821 -9.54041535 141.5962482 -24.328125 141.265625 C-30.23245114 140.83850353 -33.72870975 139.51092179 -37.703125 135.1171875 C-45.16929508 125.0052387 -45.45164569 113.41577534 -45.5625 101.3125 C-44.99133698 87.65318652 -44.99133698 87.65318652 -50 75.5625 C-53.44389804 72.87195466 -55.64286122 72.65826363 -60 73 C-63.49382932 74.4625332 -64.77010355 75.62231298 -66.75 78.875 C-68.52543781 83.31359451 -69.12662417 87.28004278 -69.10864258 92.04321289 C-69.10708664 93.0462999 -69.1055307 94.0493869 -69.10392761 95.08287048 C-69.09308891 96.72987694 -69.09308891 96.72987694 -69.08203125 98.41015625 C-69.07572441 100.16973412 -69.07572441 100.16973412 -69.06929016 101.96485901 C-69.05530642 105.26293609 -69.03602274 108.56089771 -69.01386261 111.85892487 C-68.9996591 114.05265186 -68.98758326 116.24638213 -68.97601318 118.44012451 C-68.928292 127.27015003 -68.85942535 136.09972634 -68.76426506 144.92937279 C-68.71921567 149.13103962 -68.67989624 153.3325943 -68.65356445 157.53442383 C-68.62738619 161.68952972 -68.58697548 165.84427943 -68.53681374 169.99916267 C-68.52035301 171.55499942 -68.50871127 173.11089621 -68.50238609 174.66680717 C-68.5499205 190.17812209 -68.5499205 190.17812209 -62.8125 204.25 C-57.87818173 207.32024248 -52.58627357 206.24872672 -47.14794922 205.00610352 C-45.36443271 204.55656823 -43.58341584 204.0970287 -41.8046875 203.62890625 C-40.85361115 203.38712143 -39.90253479 203.14533661 -38.92263794 202.89622498 C-35.90438771 202.12725004 -32.88964948 201.34546008 -29.875 200.5625 C-26.85263076 199.78558777 -23.82959221 199.01138521 -20.80593872 198.23948669 C-18.93076269 197.75992399 -17.05642693 197.27705993 -15.18307495 196.79042053 C-5.37611712 194.26417232 6.2135704 191.64602382 16.125 195 C20.55975155 198.08504456 22.30830694 202.07187499 23.53271484 207.25512695 C26.24360568 223.17913198 26.23585895 245.59729057 18 260 C8.29323599 271.71168756 -9.25043897 276.09571335 -23.125 280.6875 C-24.79067889 281.24711223 -26.45604523 281.80765561 -28.12109375 282.36914062 C-33.98261133 284.34170389 -39.84979582 286.29626865 -45.72753906 288.2199707 C-47.32807129 288.74530396 -47.32807129 288.74530396 -48.9609375 289.28125 C-50.31517822 289.72114258 -50.31517822 289.72114258 -51.69677734 290.16992188 C-58.31712235 292.55588467 -61.05931458 295.90080061 -64 302 C-65.26726469 305.7367638 -65.12703139 309.39595701 -65.12939453 313.31616211 C-65.13114685 314.04688934 -65.13289917 314.77761658 -65.13470459 315.53048706 C-65.13910412 317.94613016 -65.13618903 320.3616999 -65.1328125 322.77734375 C-65.13348674 324.46684279 -65.13445776 326.15634174 -65.13571167 327.84584045 C-65.13718662 331.3924349 -65.135043 334.93900418 -65.13037109 338.4855957 C-65.12471318 342.99737813 -65.1279289 347.50910054 -65.13394356 352.0208807 C-65.13758834 355.51537004 -65.13639209 359.0098456 -65.13381577 362.5043354 C-65.13315523 364.16545176 -65.13394387 365.82656943 -65.13629532 367.48768425 C-65.68315884 386.19919322 -65.68315884 386.19919322 -61 404 C-59.84983746 405.36222307 -59.84983746 405.36222307 -56.75 405.3125 C-52.30810173 404.94234181 -51.03676706 404.20091663 -48 401 C-39.95920726 390.43210097 -41.6553771 374.58594002 -41.61914062 361.88354492 C-41.55509786 348.44256914 -39.6338913 335.52544065 -30.39453125 325.20703125 C-20.0601773 315.22523522 -1.47823009 307.61681916 12.8515625 306.87890625 C16.58867579 307.08954354 18.88221633 307.94226278 22 310 C25.97356857 315.60903124 27.11084527 321.59641732 27.16113281 328.375 C27.17074036 329.42800293 27.1803479 330.48100586 27.19024658 331.56591797 C27.1966214 333.26578857 27.1966214 333.26578857 27.203125 335 C27.20882507 336.18609863 27.21452515 337.37219727 27.22039795 338.59423828 C27.22984477 341.11262117 27.23638067 343.6310164 27.24023438 346.14941406 C27.24982392 349.93057242 27.28080157 353.71115937 27.3125 357.4921875 C27.39221869 375.50141848 26.60015971 393.34123893 21.3125 410.6875 C20.93121948 411.9727356 20.93121948 411.9727356 20.54223633 413.28393555 C17.79091008 422.20824639 14.17875192 430.65793015 10 439 C9.66129883 439.67869141 9.32259766 440.35738281 8.97363281 441.05664062 C-1.41498146 461.47870287 -16.68705798 480.20406894 -35 494 C-35.77472656 494.60199219 -36.54945313 495.20398438 -37.34765625 495.82421875 C-42.28087654 499.48913199 -47.4807116 502.45252033 -52.9375 505.25 C-53.56938232 505.57943604 -54.20126465 505.90887207 -54.85229492 506.24829102 C-64.25518919 510.91217427 -73.49570274 512.54380978 -83.9375 512.4375 C-84.99146973 512.42920166 -86.04543945 512.42090332 -87.13134766 512.41235352 C-99.57430385 512.14168695 -108.34764504 508.88359881 -118 501 C-118.62519531 500.49984375 -119.25039063 499.9996875 -119.89453125 499.484375 C-134.65624832 486.28879947 -138.64794374 464.74905201 -140 446 C-140.47329205 435.82342392 -140.58164824 425.63134473 -140.73938918 415.44591486 C-140.80540614 411.30555924 -140.88138285 407.16538393 -140.95605469 403.025177 C-141.10052338 394.92953843 -141.23597453 386.83377344 -141.36832179 378.73792862 C-141.52348945 369.2679131 -141.68782949 359.79806306 -141.85250328 350.32820887 C-142.14673489 333.39055118 -142.43287414 316.45276655 -142.71435547 299.51489258 C-142.98597348 283.17104125 -143.26302246 266.82729456 -143.54638672 250.48364258 C-143.56378325 249.48021153 -143.58117977 248.47678048 -143.59910347 247.44294243 C-143.61647422 246.44106428 -143.63384496 245.43918613 -143.6517421 244.40694803 C-143.68673584 242.38852915 -143.72172707 240.37011022 -143.75671577 238.35169125 C-143.77398179 237.35567791 -143.79124781 236.35966458 -143.80903704 235.33346903 C-144.08070115 219.64851677 -144.34720482 203.96347627 -144.61325375 188.27842791 C-144.7088964 182.64361766 -144.80527933 177.00882068 -144.90226615 171.37403342 C-145.2835197 149.214201 -145.64752656 127.05428453 -145.94698811 104.89317846 C-145.98094751 102.39920949 -146.01577124 99.90525205 -146.05169964 97.41131067 C-146.13682072 91.48966245 -146.20895152 85.56838951 -146.24685264 79.64623749 C-146.25860476 78.07482416 -146.27516222 76.50343542 -146.29773164 74.93214023 C-146.4879436 61.06171766 -144.92795091 46.84775038 -140.3125 33.6875 C-140.05831299 32.94951172 -139.80412598 32.21152344 -139.54223633 31.45117188 C-135.36699008 19.92394308 -128.49547609 10.75950369 -120 2 C-119.44957031 1.37609375 -118.89914062 0.7521875 -118.33203125 0.109375 C-87.92100349 -33.2301221 -31.48323274 -27.58374498 0 0 Z " fill="#FBFBFB" transform="translate(908,353)"/>
<path d="M0 0 C1.61068359 -0.02670776 1.61068359 -0.02670776 3.25390625 -0.05395508 C17.94417717 -0.03925576 30.92606066 4.05007301 41.71484375 14.2109375 C51.03375492 24.13880722 52.83308908 36.33980514 52.84863281 49.47363281 C52.85608017 50.98704002 52.85608017 50.98704002 52.86367798 52.53102112 C52.87824801 55.85922943 52.88509304 59.18739007 52.890625 62.515625 C52.89638072 64.83721924 52.9021384 67.15881348 52.90789795 69.48040771 C52.91839328 74.34582744 52.92424555 79.21123071 52.92773438 84.07666016 C52.93321579 90.29492252 52.95724275 96.51296556 52.98570633 102.73115921 C53.00437828 107.52686183 53.00954074 112.32251209 53.01107025 117.11824799 C53.01408703 119.40985055 53.02208242 121.70145241 53.03525543 123.9930191 C53.052411 127.20677639 53.05041235 130.4200039 53.04394531 133.63378906 C53.0531601 134.57023758 53.06237488 135.5066861 53.0718689 136.47151184 C52.99783061 148.28436778 49.13204267 156.27269819 41.6875 165.3125 C42.07421875 165.71339844 42.4609375 166.11429688 42.859375 166.52734375 C49.62054307 173.90772771 52.79668915 181.82745327 52.82794189 191.84666443 C52.83365204 192.94712097 52.83936218 194.04757751 52.84524536 195.18138123 C52.84692215 196.97769737 52.84692215 196.97769737 52.84863281 198.81030273 C52.85608017 200.71351791 52.85608017 200.71351791 52.86367798 202.65518188 C52.87676036 206.1283179 52.88323832 209.60143462 52.88768864 213.0745914 C52.890625 215.24609621 52.89473078 217.4175958 52.89919281 219.58909798 C52.91285436 226.3882337 52.9225286 233.18735743 52.9263947 239.98650593 C52.93087774 247.82651184 52.94844257 255.66634361 52.9773953 263.50629658 C52.99902173 269.57353586 53.00909943 275.64072617 53.01043582 281.70800358 C53.0114828 285.32883064 53.01736821 288.9494937 53.03525543 292.57028008 C53.05481976 296.60872838 53.05044336 300.64681227 53.04394531 304.68530273 C53.0531601 305.8808226 53.06237488 307.07634247 53.0718689 308.30809021 C53.01972321 318.63840443 53.01972321 318.63840443 49.6875 323.3125 C42.89818253 327.83871165 33.19850559 325.1052415 25.5 324 C24.23555054 323.82368042 24.23555054 323.82368042 22.94555664 323.64379883 C16.58905468 322.66784223 10.00094827 321.62594827 5.3125 316.9375 C2.65761353 312.64883724 1.43848604 309.15552427 1.42921448 304.10223389 C1.42238647 303.07342606 1.41555847 302.04461823 1.40852356 300.9846344 C1.41107651 299.86660934 1.41362946 298.74858429 1.41625977 297.59667969 C1.41103302 296.41071701 1.40580627 295.22475433 1.40042114 294.00285339 C1.38751165 290.75675095 1.38312737 287.51075923 1.38157773 284.26463604 C1.3770963 280.85885772 1.35909231 277.45315754 1.34178162 274.04742432 C1.2926673 263.9173852 1.26175625 253.78730029 1.24047852 243.65716553 C1.22392073 235.78702922 1.20100281 227.91703777 1.15745777 220.04699826 C1.13931746 216.66139795 1.12705577 213.2759958 1.12875557 209.89034271 C1.12856301 206.10867902 1.11025763 202.32748846 1.08813477 198.54589844 C1.09271194 197.43597031 1.09728912 196.32604218 1.102005 195.18247986 C1.04532953 189.07256156 0.89968656 182.70553533 -2.3125 177.3125 C-6.10444446 174.75264471 -8.92637957 175.4690153 -13.3125 176.3125 C-15.60984568 182.71372345 -15.59894365 188.73184551 -15.58374023 195.48657227 C-15.59158035 197.30244339 -15.59158035 197.30244339 -15.59957886 199.15499878 C-15.60979916 201.77632498 -15.61653456 204.3973896 -15.61746025 207.01870918 C-15.61940971 211.16700132 -15.63750928 215.31512842 -15.65821838 219.46336365 C-15.70728058 229.76329004 -15.73829473 240.06326086 -15.75952148 250.36328125 C-15.7760578 258.37678093 -15.7988938 266.39013788 -15.84254223 274.40354198 C-15.86427557 278.52401852 -15.87238063 282.64422357 -15.87014949 286.76475346 C-15.87221199 289.93250176 -15.89357685 293.1001324 -15.91186523 296.26782227 C-15.90728806 297.40409561 -15.90271088 298.54036896 -15.897995 299.71107483 C-15.94914997 305.27788966 -16.02706759 309.56963968 -19.3125 314.3125 C-26.87735252 318.09492626 -39.19989201 314.720329 -47.1875 313.5 C-48.96253906 313.2515332 -48.96253906 313.2515332 -50.7734375 312.99804688 C-63.90464853 311.0387164 -63.90464853 311.0387164 -68.43065739 305.91428089 C-71.36702111 301.31402907 -70.87980534 296.23228573 -70.85166931 290.94572449 C-70.86128726 289.79538626 -70.87090521 288.64504804 -70.88081461 287.45985109 C-70.9033844 284.27537505 -70.9081439 281.09145095 -70.90528262 277.90691459 C-70.90651382 274.46911252 -70.93069036 271.03146076 -70.95193481 267.59373474 C-70.98984803 260.86178208 -71.00638416 254.12993882 -71.01544964 247.39789196 C-71.02667159 239.55444979 -71.05783458 231.71112467 -71.08950336 223.86774305 C-71.14522579 209.86880081 -71.18097145 195.86987663 -71.20629883 181.87084961 C-71.23086175 168.29555875 -71.27227474 154.7204487 -71.33129883 141.14526367 C-71.39557431 126.35772176 -71.45021967 111.57020206 -71.48841387 96.7825678 C-71.49250454 95.20440851 -71.49660117 93.62624924 -71.50070381 92.04808998 C-71.50271011 91.27164722 -71.5047164 90.49520446 -71.5067835 89.69523313 C-71.52150692 84.23210432 -71.54290021 78.76902495 -71.56675529 73.30592918 C-71.59559425 66.64296575 -71.61335974 59.98007849 -71.61722671 53.31705209 C-71.61945006 49.91944062 -71.62641248 46.52202242 -71.64657402 43.12446594 C-71.66582196 39.4362484 -71.66637374 35.74848132 -71.66221619 32.06022644 C-71.67211718 30.99328731 -71.68201817 29.92634818 -71.6922192 28.82707757 C-71.66153067 22.65700532 -71.18500193 16.88653174 -68.3125 11.3125 C-65.84057617 9.65087891 -65.84057617 9.65087891 -62.91796875 8.9140625 C-61.84595215 8.62950195 -60.77393555 8.34494141 -59.66943359 8.05175781 C-58.56164551 7.80780273 -57.45385742 7.56384766 -56.3125 7.3125 C-55.27561035 7.07112305 -54.2387207 6.82974609 -53.17041016 6.58105469 C-49.9975328 5.88678602 -46.81965036 5.27307404 -43.625 4.6875 C-42.48289062 4.47585205 -41.34078125 4.2642041 -40.1640625 4.04614258 C-36.88307734 3.44995792 -33.59956369 2.87411681 -30.3125 2.3125 C-29.51118652 2.17537598 -28.70987305 2.03825195 -27.88427734 1.89697266 C-18.61221051 0.38468938 -9.37677713 0.0985567 0 0 Z " fill="#FEFEFE" transform="translate(882.3125,9.6875)"/>
<path d="M0 0 C7.94631629 6.36700147 12.82373604 14.01464674 15 24 C15.0984854 26.82890197 15.14348155 29.6331539 15.14044189 32.46206665 C15.14341302 33.32414179 15.14638414 34.18621693 15.1494453 35.07441556 C15.15812949 37.96840272 15.15964032 40.8623485 15.16113281 43.75634766 C15.16576126 45.82935677 15.17078595 47.90236504 15.17617798 49.97537231 C15.18930316 55.61199044 15.1957474 61.24859666 15.20018864 66.88522768 C15.20311972 70.40772315 15.20722465 73.93021537 15.21169281 77.4527092 C15.22536927 88.47635814 15.23503468 99.49999965 15.2388947 110.52365649 C15.2433732 123.24353726 15.26091087 135.96331045 15.2898953 148.68315852 C15.31152598 158.51771121 15.32159976 168.35223367 15.32293582 178.1868099 C15.32398303 184.05905694 15.32987287 189.93120287 15.34775543 195.80342484 C15.36425955 201.33066711 15.36638016 206.85773253 15.35761642 212.38499069 C15.35684726 214.40939559 15.36117286 216.43381009 15.37107468 218.45819092 C15.44705647 234.96566556 13.88292031 246.45022792 2.5 259.125 C-9.45268205 270.53127373 -25.64183425 273.49275949 -41.55615234 273.35180664 C-62.54537715 272.77792907 -82.47115368 264.75428892 -97.7734375 250.375 C-109.21915856 238.16623087 -109.44847528 223.26634581 -109.40405273 207.49438477 C-109.40976536 205.651658 -109.41673305 203.80893478 -109.42485046 201.96621704 C-109.44269768 196.99302126 -109.44162954 192.02000274 -109.43590808 187.04678464 C-109.4328042 182.88198498 -109.43892191 178.71721878 -109.44494683 174.55242389 C-109.45896253 164.72136266 -109.4574552 154.89038837 -109.44604492 145.05932617 C-109.43456443 134.94476346 -109.44864505 124.83046593 -109.4754414 114.71593815 C-109.49764889 106.00471819 -109.50422448 97.29358117 -109.49836498 88.58233494 C-109.49500655 83.3914043 -109.49733624 78.20064362 -109.51461601 73.00973701 C-109.53016398 68.12660677 -109.52604306 63.24386735 -109.50731087 58.36075211 C-109.50364674 56.57787713 -109.50666925 54.79497268 -109.51719666 53.01212502 C-109.5916942 39.34296795 -108.71471938 26.54869761 -99 16 C-98.41347656 15.33484375 -97.82695313 14.6696875 -97.22265625 13.984375 C-74.51139571 -10.35243589 -28.20594801 -20.02577608 0 0 Z " fill="#FDFDFD" transform="translate(791,41)"/>
<path d="M0 0 C22.77522657 0.41993368 45.3100884 4.60686708 67.2265625 10.62890625 C67.97599121 10.8309668 68.72541992 11.03302734 69.49755859 11.24121094 C86.38382218 15.90752206 103.55284593 25.02429329 112.98046875 40.30078125 C117.54748439 48.83351266 119.37207551 56.64117603 119.38769531 66.31152344 C119.39514267 67.42991104 119.39514267 67.42991104 119.40274048 68.57089233 C119.41727147 71.02253158 119.42414916 73.47410612 119.4296875 75.92578125 C119.43392857 77.18961514 119.43392857 77.18961514 119.43825531 78.47898102 C119.45321188 82.93846446 119.46246342 87.39791585 119.46679688 91.85742188 C119.47227391 96.44129641 119.49629583 101.02487279 119.52476883 105.60865402 C119.54348205 109.15363394 119.54860543 112.6985433 119.55013275 116.24356842 C119.55314062 117.9323006 119.56110532 119.6210321 119.57431793 121.30971527 C119.73792629 143.82864102 119.73792629 143.82864102 112.6640625 151.25390625 C112.06464844 151.90617188 111.46523438 152.5584375 110.84765625 153.23046875 C109.2265625 154.62890625 109.2265625 154.62890625 107.2265625 154.62890625 C107.91492188 155.3559375 107.91492188 155.3559375 108.6171875 156.09765625 C117.10793552 165.37326333 119.37260119 172.99052323 119.38769531 185.37280273 C119.39514267 186.83710724 119.39514267 186.83710724 119.40274048 188.33099365 C119.41732244 191.55400298 119.42415653 194.77696313 119.4296875 198 C119.435441 200.24292502 119.44119871 202.48585003 119.44696045 204.72877502 C119.4574583 209.42864206 119.46330933 214.12849204 119.46679688 218.82836914 C119.47228741 224.84863971 119.49633267 230.86868478 119.52476883 236.88888454 C119.54339435 241.52058064 119.54860071 246.15222232 119.55013275 250.78395271 C119.5531586 253.00350239 119.5611848 255.22305113 119.57431793 257.44256401 C119.59138074 260.5470893 119.58949774 263.65106202 119.58300781 266.75561523 C119.5922226 267.67061295 119.60143738 268.58561066 119.6109314 269.52833557 C119.57214447 275.45417868 118.74334319 279.8207741 114.640625 284.3984375 C110.80892104 286.35149049 106.83588233 286.76316134 102.6015625 287.31640625 C101.67601562 287.43943115 100.75046875 287.56245605 99.796875 287.68920898 C93.61789608 288.4536677 87.45118071 289.01788641 81.2265625 289.19140625 C80.49228027 289.23031982 79.75799805 289.2692334 79.00146484 289.30932617 C76.14183949 289.32437683 73.90578861 289.19344959 71.65625 287.32373047 C68.53537962 283.66005156 67.10404643 281.09522738 67.08853149 276.38009644 C67.08307816 275.4885939 67.07762482 274.59709137 67.07200623 273.67857361 C67.0709639 272.6978035 67.06992157 271.71703339 67.06884766 270.70654297 C67.06376694 269.67546921 67.05868622 268.64439545 67.05345154 267.58207703 C67.04273058 265.33672823 67.0341172 263.09136863 67.02733231 260.84600449 C67.01556302 257.28986751 66.99611353 253.73385306 66.97421265 250.17776489 C66.91254195 240.0645151 66.85860158 229.95127632 66.82519531 219.83789062 C66.80422448 213.65631871 66.76889648 207.47496752 66.72443771 201.29352188 C66.71029131 198.93890104 66.70155836 196.58424112 66.69838333 194.22957993 C66.69346291 190.92869827 66.67027317 187.62839952 66.64306641 184.32763672 C66.64607254 183.35901199 66.64907867 182.39038727 66.6521759 181.39241028 C66.58485273 175.87921368 66.41013032 168.81247407 62.2265625 164.62890625 C56.95922601 164.08194395 56.95922601 164.08194395 52.2890625 165.94140625 C50.35116743 169.0192396 50.09961795 171.66478152 50.08853149 175.20124817 C50.08307816 176.13908646 50.07762482 177.07692474 50.07200623 178.04318237 C50.07044273 179.5837883 50.07044273 179.5837883 50.06884766 181.15551758 C50.06376694 182.2387178 50.05868622 183.32191803 50.05345154 184.4379425 C50.04274085 186.79350281 50.03412342 189.14907334 50.02733231 191.50464821 C50.01555677 195.23253853 49.99610726 198.9603123 49.97421265 202.68815613 C49.91255108 213.28857102 49.8583035 223.88895982 49.82519531 234.48950195 C49.80425901 240.97047015 49.76896312 247.45122642 49.72443771 253.93207359 C49.71026862 256.40278314 49.70155324 258.87353019 49.69838333 261.34427834 C49.69347892 264.80111513 49.67033179 268.2573888 49.64306641 271.71411133 C49.64607254 272.73510925 49.64907867 273.75610718 49.6521759 274.80804443 C49.57949174 281.00843615 48.9779081 285.64718482 44.59375 290.3984375 C40.99125382 292.27102215 37.3466306 292.75455759 33.3515625 293.31640625 C32.48329834 293.44015625 31.61503418 293.56390625 30.72045898 293.69140625 C23.91921809 294.5737556 17.14469919 295.00777584 10.2890625 295.12890625 C9.3604541 295.15944092 8.4318457 295.18997559 7.47509766 295.22143555 C2.95340401 295.22351774 0.878994 295.11428204 -2.83984375 292.34765625 C-5.59036382 288.48025834 -5.89798025 285.45259074 -5.90486526 280.77781773 C-5.90870641 279.79758627 -5.91254755 278.8173548 -5.9165051 277.80741936 C-5.91563862 276.7330158 -5.91477213 275.65861224 -5.91387939 274.551651 C-5.91685052 273.40836647 -5.91982164 272.26508194 -5.9228828 271.08715242 C-5.93006144 267.91339354 -5.93274198 264.73966764 -5.93348026 261.56590188 C-5.93533194 258.14320719 -5.94287973 254.72052421 -5.94961548 251.2978363 C-5.96319325 243.81450666 -5.96922231 236.33118237 -5.97362614 228.84784245 C-5.97638881 224.17626981 -5.98062615 219.50469923 -5.98513031 214.83312798 C-5.99732096 201.90110053 -6.00762152 188.96907473 -6.0110054 176.03704166 C-6.01133475 174.79574238 -6.01133475 174.79574238 -6.01167075 173.52936634 C-6.01188903 172.6998506 -6.01210731 171.87033486 -6.0123322 171.01568228 C-6.01277567 169.33475498 -6.01322223 167.65382769 -6.01367188 165.97290039 C-6.0138933 165.13910181 -6.01411473 164.30530323 -6.01434287 163.44623803 C-6.01829297 149.92833846 -6.03575436 136.41049272 -6.0590314 122.89261395 C-6.08273179 109.01703876 -6.09520661 95.1414906 -6.09637332 81.26589483 C-6.09729068 73.47395135 -6.10305857 65.68207806 -6.12119293 57.89015388 C-6.13657605 51.25701637 -6.14172491 44.62397076 -6.13345483 37.99081881 C-6.12954224 34.60584 -6.13213204 31.22119722 -6.14451218 27.83621597 C-6.15714306 24.16836459 -6.15140287 20.50099257 -6.14093018 16.83314514 C-6.14898658 15.7609723 -6.15704298 14.68879947 -6.16534352 13.58413655 C-6.08351259 1.37950074 -6.08351259 1.37950074 0 0 Z " fill="#FCFCFC" transform="translate(170.7734375,22.37109375)"/>
<path d="M0 0 C6.57827399 5.71975348 11.42216776 12.37051577 13.3046875 21.00390625 C13.40511288 23.77634426 13.45250636 26.52382309 13.45185852 29.29634094 C13.45553521 30.14011502 13.4592119 30.9838891 13.463 31.85323209 C13.47402723 34.68511986 13.47787902 37.51697093 13.48168945 40.34887695 C13.48795473 42.37749345 13.49460158 44.4061088 13.50160217 46.4347229 C13.52263367 53.09970298 13.53300226 59.76468328 13.54296875 66.4296875 C13.54701635 68.72396545 13.55113327 71.01824328 13.55531883 73.31252098 C13.57436682 84.08894928 13.58859988 94.86537073 13.5969308 105.64181262 C13.60670858 118.08442429 13.63304394 130.52685832 13.67343169 142.96940738 C13.70357546 152.58565527 13.71839795 162.20185218 13.72171181 171.81814641 C13.72406387 177.56234473 13.73304503 183.30635319 13.75817299 189.05050087 C13.78142877 194.45383571 13.78569688 199.85685531 13.77541161 205.2602272 C13.77491556 207.24235901 13.78125605 209.22450621 13.79496765 211.20659065 C13.81265399 213.91494552 13.80559659 216.62216499 13.79243469 219.33052063 C13.80340394 220.11282856 13.81437318 220.89513649 13.82567483 221.70115072 C13.76101988 227.22061275 12.48317854 230.4643413 9.3046875 235.00390625 C-0.19091296 241.06492782 -14.26611985 240.10100796 -25.0546875 238.5078125 C-30.12570976 237.14785653 -33.43963786 235.27697921 -36.6953125 231.00390625 C-39.09788771 226.43535658 -38.9662934 222.2062203 -38.92236328 217.17456055 C-38.92265533 216.29600906 -38.92294739 215.41745758 -38.92324829 214.51228333 C-38.92185845 211.61746232 -38.90631346 208.72290087 -38.890625 205.828125 C-38.88689364 203.81745036 -38.88404725 201.80677391 -38.88204956 199.7960968 C-38.87442278 194.51068072 -38.85478242 189.225375 -38.8326416 183.94000244 C-38.81216265 178.54400119 -38.80304346 173.14798206 -38.79296875 167.75195312 C-38.77153567 157.16921461 -38.73636124 146.58658688 -38.6953125 136.00390625 C-44.6353125 136.00390625 -50.5753125 136.00390625 -56.6953125 136.00390625 C-56.6638916 138.68837891 -56.6324707 141.37285156 -56.60009766 144.13867188 C-56.50053282 153.02331511 -56.434346 161.90798344 -56.38443947 170.79303741 C-56.35317068 176.17840668 -56.31077871 181.56320277 -56.24267578 186.94824219 C-56.17732518 192.14838772 -56.14157298 197.3479831 -56.12604904 202.54850769 C-56.1149909 204.52923744 -56.09339639 206.50993818 -56.06093216 208.49043274 C-56.01715952 211.27227044 -56.01138698 214.05185588 -56.01416016 216.83398438 C-55.9925885 217.64678864 -55.97101685 218.4595929 -55.9487915 219.29702759 C-56.0163254 225.58757499 -58.22040675 229.59706979 -62.6953125 234.00390625 C-70.05416231 238.77270216 -76.80092934 239.20852947 -85.3828125 239.25390625 C-86.81657227 239.28484375 -86.81657227 239.28484375 -88.27929688 239.31640625 C-94.83798797 239.3521728 -102.13247476 239.1130192 -107.3190918 234.58691406 C-111.63859731 229.61837162 -111.84283431 225.33898115 -111.83575439 219.05519104 C-111.84021108 217.82672995 -111.84021108 217.82672995 -111.8447578 216.57345146 C-111.85345426 213.81922106 -111.85495388 211.06503407 -111.85644531 208.31079102 C-111.86107302 206.3396953 -111.86609762 204.36860048 -111.87149048 202.39750671 C-111.88462585 197.03341368 -111.8910623 191.66933317 -111.89550114 186.30522656 C-111.89843159 182.95207313 -111.90253647 179.59892312 -111.90700531 176.24577141 C-111.92068668 165.74964366 -111.93034874 155.25352374 -111.9342072 144.7573877 C-111.9386819 132.65161 -111.95619981 120.54594556 -111.9852078 108.4402023 C-112.00685871 99.07867057 -112.01691339 89.71717061 -112.01824832 80.35561413 C-112.01929441 74.76721434 -112.02515997 69.17892092 -112.04306793 63.59054756 C-112.05960628 58.32677872 -112.06167618 53.06319551 -112.05292892 47.79940987 C-112.05216148 45.87421164 -112.05646236 43.94900321 -112.06638718 42.02383041 C-112.19854372 14.77557724 -112.19854372 14.77557724 -102.6953125 4.00390625 C-77.10506268 -21.16911124 -27.79790374 -21.73515619 0 0 Z " fill="#FDFDFD" transform="translate(534.6953125,62.99609375)"/>
<path d="M0 0 C1.53527042 1.1476018 3.05676863 2.31390634 4.5625 3.5 C5.31789063 4.06847656 6.07328125 4.63695313 6.8515625 5.22265625 C15.78230913 12.45011615 23.04935913 23.21330486 25.5625 34.5 C25.81805916 35.64451378 25.81805916 35.64451378 26.07878113 36.81214905 C26.54846201 39.42199597 26.70851221 41.8220962 26.73950195 44.47045898 C26.75875481 45.91236855 26.75875481 45.91236855 26.77839661 47.38340759 C26.78578354 48.41059402 26.79317047 49.43778046 26.80078125 50.49609375 C26.808853 51.56239517 26.81692474 52.62869659 26.82524109 53.72731018 C26.83904804 55.97907907 26.84978529 58.23086859 26.85766602 60.48266602 C26.86921334 62.78416071 26.88970813 65.08562806 26.91918945 67.38696289 C26.96181936 70.71519135 26.97802657 74.04262634 26.98828125 77.37109375 C27.01454338 78.90883705 27.01454338 78.90883705 27.04133606 80.47764587 C27.02306214 86.50171793 26.5478311 89.89906733 22.5625 94.5 C16.35761183 100.53718849 9.07289216 100.86286012 0.77172852 100.79541016 C-8.05153129 100.5904776 -16.24200159 99.40593752 -23.03515625 93.390625 C-28.47450281 86.05735554 -27.91878474 78.30921851 -28 69.5 C-28.03161483 66.83285836 -28.07731371 64.16693758 -28.12890625 61.5 C-28.14739624 59.7365625 -28.14739624 59.7365625 -28.16625977 57.9375 C-28.46188478 54.19096512 -29.14427583 51.0285966 -30.4375 47.5 C-34.13236103 45.03675931 -36.07043092 45.11008312 -40.4375 45.5 C-42.51791835 46.88694557 -43.20593121 47.81483968 -43.99945545 50.16270065 C-44.59642897 53.34800637 -44.5670057 56.40538315 -44.57121277 59.64678955 C-44.57347833 60.36735149 -44.57574388 61.08791343 -44.57807809 61.83031058 C-44.58440915 64.24528845 -44.58358929 66.66021006 -44.58276367 69.07519531 C-44.58575577 70.8066261 -44.58915842 72.53805623 -44.59294128 74.26948547 C-44.60178155 78.97418474 -44.60411945 83.67886581 -44.60475707 88.38357258 C-44.6054677 91.32378898 -44.6076023 94.26400075 -44.61025429 97.204216 C-44.61950866 107.46443475 -44.62358917 117.7246405 -44.62280273 127.98486328 C-44.62220231 137.5437417 -44.63274705 147.10256361 -44.6485464 156.66142774 C-44.66163176 164.87133463 -44.66698619 173.08122308 -44.66634732 181.29114032 C-44.66609258 186.19302782 -44.6689308 191.09486515 -44.67952538 195.99674225 C-44.68922278 200.60961185 -44.68927425 205.22238348 -44.68200874 209.83525658 C-44.68096486 211.52508627 -44.68331412 213.21492212 -44.6893692 214.90474129 C-44.69712023 217.21836702 -44.69242394 219.53165705 -44.68473816 221.84527588 C-44.68528293 223.13796513 -44.68582769 224.43065437 -44.68638897 225.76251602 C-44.40377854 230.00638404 -43.7395117 233.44906433 -42.4375 237.5 C-39.55237022 239.84522935 -39.55237022 239.84522935 -35.9375 239.375 C-32.46237222 238.80659326 -32.46237222 238.80659326 -30.5625 236.75 C-28.30944693 232.24389387 -28.30886685 227.69730095 -28.26171875 222.73046875 C-28.23787109 221.42916016 -28.21402344 220.12785156 -28.18945312 218.78710938 C-28.15445848 216.74004509 -28.12503991 214.69356638 -28.11157227 212.64624023 C-27.99869445 198.25518671 -27.99869445 198.25518671 -23.4375 191.5 C-14.6833225 184.40381066 -3.10060597 184.83023362 7.5625 185.5 C14.49625721 186.5701908 19.93611504 189.12445611 24.5625 194.5 C26.35073457 197.51992336 26.8206377 199.75185371 26.85302734 203.24584961 C26.86578705 204.18460434 26.87854675 205.12335907 26.89169312 206.09056091 C26.89391876 207.10094925 26.89614441 208.11133759 26.8984375 209.15234375 C26.9084227 210.72901573 26.9084227 210.72901573 26.91860962 212.33753967 C26.92873637 214.56591037 26.93342663 216.79431139 26.93310547 219.02270508 C26.93744392 222.39391909 26.97366767 225.76378624 27.01171875 229.13476562 C27.11460865 248.8121401 24.10166903 263.2535002 10.22265625 277.9296875 C-0.6619551 288.44668349 -14.91082343 294.78340874 -29.4375 298.5 C-30.18773438 298.69335938 -30.93796875 298.88671875 -31.7109375 299.0859375 C-46.93282095 301.39757023 -63.28847895 299.92293521 -76.4375 291.5 C-87.29161833 283.36746327 -94.09707118 272.96179292 -96.4375 259.5 C-97.17376489 251.82468268 -96.98534738 244.0842175 -96.95507812 236.3828125 C-96.96050589 234.0571855 -96.96763221 231.73156194 -96.97631836 229.40594482 C-96.99447657 223.12083168 -96.9875151 216.83598264 -96.97480202 210.55086517 C-96.96566784 204.62564366 -96.97265966 198.70045401 -96.9785108 192.7752316 C-96.98988754 180.32496561 -96.97684872 167.87481787 -96.95530933 155.42457128 C-96.93744096 144.76671232 -96.94054589 134.10902769 -96.95898438 123.45117188 C-96.98044268 111.04217859 -96.98878918 98.63328866 -96.97653532 86.2242794 C-96.97031718 79.66740106 -96.96941851 73.1106425 -96.98268127 66.55377197 C-96.99428348 60.38777028 -96.98613406 54.22209599 -96.96310425 48.05612946 C-96.9578405 45.80077913 -96.95929063 43.54540099 -96.96815491 41.29006195 C-97.02353893 25.76030044 -96.67425462 12.11624238 -86.4375 -0.5 C-85.93605469 -1.12519531 -85.43460938 -1.75039063 -84.91796875 -2.39453125 C-63.09447721 -26.76675173 -23.22610587 -15.7117775 0 0 Z " fill="#FEFEFE" transform="translate(133.4375,29.5)"/>
<path d="M0 0 C8.23625579 6.8200048 12.40365724 14.69336615 15 25 C15.36929713 29.60286982 15.37164543 34.20007929 15.37060547 38.81542969 C15.3749898 40.99492955 15.41141025 43.17241823 15.44921875 45.3515625 C15.55847524 58.55872146 15.55847524 58.55872146 11 64 C9.0703125 65.5234375 9.0703125 65.5234375 7.125 66.375 C6.48820312 66.67148438 5.85140625 66.96796875 5.1953125 67.2734375 C-4.97213064 70.63846317 -19.28103203 70.63775848 -29 66 C-33.20741587 63.43858155 -35.55929339 60.73559616 -37 56 C-37.37485325 52.45211891 -37.41313457 48.8909963 -37.47851562 45.32617188 C-37.65315181 40.53432522 -38.37909315 37.16640475 -41 33 C-44.11549872 31.44225064 -47.6044388 31.43519378 -51 32 C-53.27932761 33.69186151 -53.93577365 34.58434488 -54.3742218 37.42185974 C-54.37359238 38.38020218 -54.37296295 39.33854462 -54.37231445 40.32592773 C-54.37854324 41.41393173 -54.38477203 42.50193573 -54.39118958 43.62290955 C-54.38197983 44.79793533 -54.37277008 45.97296112 -54.36328125 47.18359375 C-54.36377975 48.39064468 -54.36427826 49.59769562 -54.36479187 50.84132385 C-54.36244963 53.39594161 -54.35271241 55.9505616 -54.33618164 58.50512695 C-54.31261538 62.41834132 -54.31561669 66.33087347 -54.32226562 70.24414062 C-54.31668813 72.7239624 -54.30957781 75.2037813 -54.30078125 77.68359375 C-54.30169266 78.85659531 -54.30260406 80.02959686 -54.30354309 81.23814392 C-54.28924507 82.87487816 -54.28924507 82.87487816 -54.2746582 84.54467773 C-54.27005081 85.50381577 -54.26544342 86.4629538 -54.26069641 87.45115662 C-53.98709556 90.12616743 -53.44365121 91.74548647 -52 94 C-47.62175882 96.61532336 -42.91004245 96.29589483 -37.96484375 96.30859375 C-36.16731477 96.33377578 -34.36978881 96.35917344 -32.57226562 96.38476562 C-29.76408839 96.41333826 -26.95596399 96.43737558 -24.14770508 96.45629883 C0.42312142 96.65387285 0.42312142 96.65387285 9.125 101.875 C13.86006282 107.24140453 13.40828004 113.44986457 13.2578125 120.25 C12.89277803 125.55959224 11.93138077 130.18823718 8.89453125 134.609375 C3.10753028 138.85715303 -5.04578754 138.29351804 -11.88671875 138.30859375 C-13.97982074 138.33373292 -16.07291964 138.35913122 -18.16601562 138.38476562 C-21.43790008 138.41358087 -24.70973115 138.43762687 -27.98168945 138.45629883 C-31.15862931 138.47793331 -34.33498193 138.51734396 -37.51171875 138.55859375 C-38.48888351 138.55870956 -39.46604828 138.55882538 -40.4728241 138.5589447 C-47.22702662 138.65548807 -47.22702662 138.65548807 -53 142 C-54.16029136 144.32058272 -54.14450313 145.70978774 -54.17700195 148.29443359 C-54.18983719 149.1823056 -54.20267242 150.07017761 -54.21589661 150.98495483 C-54.22328354 151.94640411 -54.23067047 152.90785339 -54.23828125 153.8984375 C-54.246353 154.88494293 -54.25442474 155.87144836 -54.26274109 156.8878479 C-54.27658538 158.97762288 -54.28730598 161.06742051 -54.29516602 163.15722656 C-54.31239362 166.35525216 -54.3562786 169.55224805 -54.40039062 172.75 C-54.41051609 174.77863822 -54.41903265 176.80728524 -54.42578125 178.8359375 C-54.44328934 179.79333832 -54.46079742 180.75073914 -54.47883606 181.7371521 C-54.51009123 187.00476416 -54.51009123 187.00476416 -52.19213867 191.60400391 C-48.95805472 193.66353081 -46.74822281 193.5354604 -43 193 C-40.64047955 191.67816527 -40.64047955 191.67816527 -39 189 C-38.31354735 185.5631604 -38.16283017 182.12105945 -38 178.625 C-37.46444615 167.22085323 -37.46444615 167.22085323 -33 162 C-26.24893269 156.68532999 -20.06763881 156.7965406 -11.8125 156.75 C-10.91724609 156.729375 -10.02199219 156.70875 -9.09960938 156.6875 C-2.47486943 156.64923435 5.38611345 156.97417808 10.69238281 161.41699219 C16.06282097 167.62189615 15.25284092 174.47054966 15.29516602 182.18408203 C15.30658115 183.62689096 15.326863 185.06966126 15.35668945 186.51220703 C15.67388532 201.8758283 12.83278914 214.21446057 2.26171875 225.92578125 C-13.35927531 241.01158065 -35.65606635 243.48845435 -56.20703125 243.28515625 C-64.00047836 243.0722673 -70.67041268 241.73790032 -78 239 C-78.90105469 238.71125 -79.80210937 238.4225 -80.73046875 238.125 C-90.6129099 234.69295842 -99.80944808 228.20904372 -105 219 C-108.4076475 211.72302372 -110.1492645 205.53737506 -110.14717102 197.50048828 C-110.15084771 196.74191308 -110.1545244 195.98333788 -110.1583125 195.20177555 C-110.16933204 192.65794767 -110.17319029 190.11416066 -110.17700195 187.5703125 C-110.18326808 185.74685029 -110.18991501 183.92338935 -110.19691467 182.09992981 C-110.21794558 176.10829557 -110.22831842 170.1166611 -110.23828125 164.125 C-110.24232963 162.05990587 -110.24644658 159.99481187 -110.25063133 157.92971802 C-110.26968348 148.22382128 -110.2839126 138.51793214 -110.2922433 128.8120203 C-110.3020062 117.62311071 -110.32830093 106.43439944 -110.36874419 95.24555969 C-110.39895609 86.58888587 -110.41371712 77.93226871 -110.41702431 69.27554321 C-110.41936965 64.10965167 -110.4282623 58.943972 -110.45348549 53.77813721 C-110.47685904 48.91238492 -110.48096225 44.04698258 -110.47072411 39.18118858 C-110.47023083 37.40272542 -110.47648924 35.62424449 -110.49028015 33.84583473 C-110.57607843 22.11816354 -110.55666717 9.75776377 -101.9375 0.6875 C-75.96353884 -25.58114144 -27.64338501 -21.75217181 0 0 Z " fill="#FDFDFD" transform="translate(405,61)"/>
<path d="M0 0 C1.74073948 2.06433813 1.77599972 3.0387747 1.76563549 5.70929241 C1.76975948 6.52958935 1.77388348 7.34988628 1.77813244 8.1950407 C1.76734661 9.09127651 1.75656078 9.98751232 1.74544811 10.91090679 C1.74610523 12.33070843 1.74610523 12.33070843 1.74677563 13.77919292 C1.74468323 16.91225491 1.72133067 20.04478382 1.69784069 23.17775249 C1.69224635 25.3482258 1.68797549 27.51870289 1.68497753 29.68918133 C1.67351607 35.40540788 1.64403755 41.12140623 1.61086559 46.83754253 C1.58019282 52.66901341 1.56647816 58.5005211 1.55135632 64.33204937 C1.51916923 75.77681117 1.46795705 87.22140349 1.40487194 98.66603374 C2.35549511 98.59620281 3.30611828 98.52637188 4.28554821 98.45442486 C5.53825512 98.36344524 6.79096203 98.27246563 8.08162975 98.17872906 C9.32100292 98.08827312 10.56037609 97.99781719 11.83730602 97.90462017 C38.19990798 96.14158085 38.19990798 96.14158085 47.40487194 102.85353374 C52.04134196 109.37356972 51.72003287 115.90695372 50.93612194 123.60353374 C50.10252427 128.40897913 48.81384253 131.77711388 44.83065319 134.90040874 C38.64803037 138.73502425 32.16011074 139.92126394 24.94002819 139.86134624 C24.26185543 139.85851635 23.58368267 139.85568645 22.88495922 139.85277081 C20.74557428 139.84168791 18.60662764 139.81660734 16.46737194 139.79103374 C15.0057895 139.7809885 13.54420041 139.77186537 12.08260632 139.76368999 C8.52322215 139.741788 4.96408991 139.70734241 1.40487194 139.66603374 C1.51265269 147.12475665 1.62534119 154.58338862 1.7442112 162.04194355 C1.79926108 165.50563947 1.85265119 168.96934406 1.90218639 172.43312359 C1.95927204 176.41969834 2.02368799 180.40613877 2.08846569 184.39259624 C2.10517818 185.63030773 2.12189068 186.86801922 2.13910961 188.14323711 C2.16902744 189.88436275 2.16902744 189.88436275 2.19954967 191.66066265 C2.2228661 193.1862228 2.2228661 193.1862228 2.24665356 194.74260235 C2.41095009 197.77834095 2.85043196 200.67893127 3.40487194 203.66603374 C6.04927833 204.54750254 7.68547946 204.82778192 10.40487194 204.85353374 C11.08549694 204.86771343 11.76612194 204.88189312 12.46737194 204.89650249 C14.73101326 204.77543786 14.73101326 204.77543786 17.40487194 202.66603374 C19.05711973 198.05625044 18.71660537 192.89400124 18.83455944 188.04103374 C19.08247022 182.19447125 20.50170174 178.11296686 24.15487194 173.41603374 C30.20033961 168.71400333 37.98258082 169.30003164 45.27987194 169.29103374 C46.31756725 169.26654156 47.35526257 169.24204937 48.42440319 169.21681499 C55.18059535 169.19125563 60.60030852 170.05305391 66.40487194 173.66603374 C71.20009862 178.58114109 71.57700475 182.8434418 71.64315319 189.44728374 C71.65122494 190.21600811 71.65929668 190.98473248 71.66761303 191.77675152 C71.68144296 193.407466 71.69217 195.03820929 71.70003796 196.66896343 C71.71149513 198.3194417 71.73184638 199.96988478 71.76156139 201.62013531 C72.00466304 215.1306111 70.87701763 225.71111428 61.72909069 236.38087749 C49.12344268 248.77466587 30.71720597 253.58552722 13.46737194 254.04103374 C-4.89913212 253.54069765 -22.68132979 248.60115094 -37.59512806 237.66603374 C-38.26028431 237.19552593 -38.92544056 236.72501812 -39.61075306 236.24025249 C-48.16638073 229.63753984 -51.92174173 220.06786277 -53.59512806 209.66603374 C-54.13286337 202.9823701 -54.01641084 196.2645682 -53.99918079 189.56471539 C-54.00489172 187.55137537 -54.01185876 185.53803858 -54.01997852 183.52470684 C-54.03783519 178.08925748 -54.03675692 172.65397019 -54.03103614 167.21850038 C-54.02793656 162.67517775 -54.03404457 158.13188591 -54.04007488 153.58856767 C-54.05409088 142.87567523 -54.05258032 132.16286262 -54.04117298 121.44996929 C-54.0296659 110.39913081 -54.04381756 99.34853429 -54.07056946 88.29772764 C-54.09270378 78.79853039 -54.0993698 69.29940923 -54.09349304 59.800188 C-54.09012032 54.13108796 -54.09256092 48.4621434 -54.10974407 42.79306507 C-54.12517726 37.47003424 -54.12129801 32.1473639 -54.10243893 26.8243475 C-54.09874448 24.87040623 -54.10188632 22.91643843 -54.11232471 20.96252155 C-54.12547633 18.29764542 -54.11403983 15.63397343 -54.0963335 12.96914959 C-54.10593851 12.19425483 -54.11554352 11.41936008 -54.12543958 10.62098366 C-54.05753958 5.66284581 -53.12565165 3.14629012 -49.59512806 -0.33396626 C-37.34573558 -9.65415619 -11.82529323 -9.88920108 0 0 Z " fill="#FCFCFC" transform="translate(607.5951280593872,49.33396625518799)"/>
<path d="M0 0 C5.03881329 3.32103603 6.05653375 7.60315829 7.421875 13.18359375 C7.61265625 14.11300781 7.8034375 15.04242188 8 16 C8.17392776 16.79908279 8.34785553 17.59816559 8.52705383 18.42146301 C9.21665367 23.63930536 9.147355 28.81525563 9.14526367 34.07299805 C9.14862228 35.28515488 9.1519809 36.49731171 9.15544128 37.74620056 C9.16329804 41.06054695 9.16661802 44.37483068 9.16725707 47.68918204 C9.16796979 49.76474826 9.17010836 51.84030798 9.17275429 53.91587257 C9.18199806 61.17105142 9.1860906 68.42621194 9.18530273 75.68139648 C9.18470297 82.42053006 9.19523735 89.15958333 9.2110464 95.8986966 C9.22417167 101.70276693 9.22948451 107.50681118 9.22884732 113.31089622 C9.2285937 116.76918446 9.23136923 120.22740135 9.24202538 123.68567467 C9.2536095 127.55049068 9.24892916 131.41519882 9.24291992 135.2800293 C9.24853943 136.40924805 9.25415894 137.5384668 9.25994873 138.7019043 C9.18355104 158.12938773 9.18355104 158.12938773 3 165 C-0.02112519 166.99265704 -1.93415855 168 -5.5625 168 C-9.58500864 166.34974004 -12.05920783 163.97099847 -13.9453125 160.01953125 C-17.33191937 150.73102211 -17.15086153 140.85042664 -17.16113281 131.0871582 C-17.16609772 129.93936386 -17.17106262 128.79156952 -17.17617798 127.60899353 C-17.19069448 123.83958317 -17.1975838 120.07021488 -17.203125 116.30078125 C-17.20595238 115.00476675 -17.20877975 113.70875225 -17.21169281 112.37346458 C-17.22510732 106.219854 -17.23501613 100.06626194 -17.2388947 93.91263801 C-17.24336845 86.85779069 -17.26089982 79.80313777 -17.2898953 72.74834949 C-17.31164726 67.26175536 -17.3216061 61.7752154 -17.32293582 56.28857869 C-17.32397413 53.02690221 -17.33116576 49.76544875 -17.34775543 46.50380898 C-17.51122672 11.89633719 -17.51122672 11.89633719 -10 2 C-6.24952518 -0.50031654 -4.44143734 -0.53603554 0 0 Z " fill="#000000" transform="translate(492,442)"/>
<path d="M0 0 C0.680625 -0.01675781 1.36125 -0.03351563 2.0625 -0.05078125 C4.59993904 0.42498857 5.34455453 1.36129482 7 3.3125 C9.47304279 11.22579234 9.28379322 19.12004787 9.25878906 27.34399414 C9.26150339 28.84956531 9.26506679 30.35513516 9.26940918 31.86070251 C9.27848219 35.92672622 9.27501025 39.99264778 9.26865101 44.05867314 C9.26356549 48.32569342 9.26828944 52.59270531 9.27142334 56.85972595 C9.27505517 64.02246664 9.27028405 71.18516599 9.26074219 78.34790039 C9.24985499 86.61574458 9.2533883 94.88349015 9.264395 103.15133196 C9.27348524 110.26581319 9.27474479 117.38026481 9.26951766 124.49474996 C9.26640804 128.73704134 9.26596091 132.97928642 9.27259064 137.22157478 C9.27838893 141.20991549 9.27432196 145.19812958 9.26280212 149.18645668 C9.26016896 150.64569133 9.26089753 152.10493672 9.26532745 153.56416702 C9.3149264 171.56888352 9.3149264 171.56888352 5.3125 176.3125 C1.99073617 177.74893841 -0.4223191 177.75971011 -4 177.3125 C-6.90717073 175.09386971 -7.83981643 173.79305071 -9 170.3125 C-9.0962802 168.12752562 -9.13066205 165.93967123 -9.13371277 163.75257874 C-9.13597833 163.08313514 -9.13824388 162.41369154 -9.14057809 161.72396177 C-9.14691855 159.4761947 -9.1460887 157.22848792 -9.14526367 154.98071289 C-9.14825511 153.37101666 -9.15165761 151.76132115 -9.15544128 150.15162659 C-9.16428649 145.77563833 -9.1666196 141.39966962 -9.16725707 137.0236733 C-9.16820581 133.37295049 -9.17188367 129.72223226 -9.17542917 126.07151121 C-9.18357553 117.46018807 -9.18601322 108.84887538 -9.18530273 100.23754883 C-9.18470172 91.34832585 -9.19525784 82.45916351 -9.2110464 73.56995589 C-9.2241118 65.94271688 -9.22948706 58.31549773 -9.22884732 50.68824762 C-9.22859206 46.13076201 -9.23145873 41.57333028 -9.24202538 37.01585579 C-9.25168968 32.73049899 -9.25179704 28.44524779 -9.24450874 24.15988731 C-9.24346086 22.58609488 -9.24583785 21.01229593 -9.2518692 19.43851471 C-9.25956336 17.29201972 -9.25496168 15.14589175 -9.24723816 12.99940491 C-9.24778293 11.79759614 -9.24832769 10.59578737 -9.24888897 9.35756016 C-9.00568058 6.38199968 -8.67518576 4.75238104 -7 2.3125 C-4.03082597 0.33305064 -3.34297721 0.01899419 0 0 Z " fill="#050505" transform="translate(746,83.6875)"/>
<path d="M0 0 C2.75903478 1.5765913 3.06344795 3.19278584 4.05932617 6.21875 C5.57057398 12.54966976 5.30829048 19.02959245 5.30078125 25.5 C5.30467612 26.90429814 5.3090124 28.30859513 5.31376648 29.71289062 C5.32119399 32.64457025 5.32096221 35.57612936 5.31567383 38.5078125 C5.30987513 42.24665212 5.32683629 45.984997 5.3500185 49.72375488 C5.36481564 52.62014604 5.36561961 55.51641954 5.36250877 58.4128418 C5.3630187 59.79061871 5.36819411 61.16840279 5.37832069 62.54614258 C5.4262001 69.9681807 5.45473927 76.32053343 2 83 C-1.7205836 85.48038907 -3.59796571 85.46337203 -8 85 C-11.19682651 82.64444363 -12.31151016 80.82907538 -13 77 C-13.10217149 74.80135917 -13.14840813 72.59990252 -13.16113281 70.39892578 C-13.16609772 69.74473663 -13.17106262 69.09054749 -13.17617798 68.41653442 C-13.19074348 66.25944962 -13.19759183 64.10243833 -13.203125 61.9453125 C-13.20888064 60.44082641 -13.21463832 58.93634032 -13.22039795 57.43185425 C-13.23089167 54.27959859 -13.23674512 51.12736831 -13.24023438 47.97509766 C-13.24571869 43.94452942 -13.26975199 39.91429906 -13.29820633 35.88383675 C-13.31686868 32.77650992 -13.32204019 29.66926396 -13.32357025 26.56188583 C-13.3265887 25.07638576 -13.33458991 23.59088684 -13.34775543 22.10544205 C-13.36489366 20.02332375 -13.36291749 17.94202433 -13.35644531 15.85986328 C-13.36191376 14.08592697 -13.36191376 14.08592697 -13.36749268 12.27615356 C-12.86075601 7.7586564 -11.35116646 4.39775841 -8.1875 1.125 C-5.25142282 -0.38498255 -3.25697589 -0.41578416 0 0 Z " fill="#040404" transform="translate(879,69)"/>
<path d="M0 0 C4.13096264 4.89192944 5.11902253 8.94280357 5.14526367 15.17651367 C5.15164352 16.20826218 5.15802338 17.24001068 5.16459656 18.30302429 C5.16570938 19.41345596 5.1668222 20.52388763 5.16796875 21.66796875 C5.17129715 22.81735428 5.17462555 23.96673981 5.17805481 25.1509552 C5.1831178 27.58443807 5.18546333 30.01792788 5.18530273 32.45141602 C5.1874814 36.15587992 5.20562251 39.86004221 5.22460938 43.56445312 C5.22754506 45.93229065 5.22952868 48.30012959 5.23046875 50.66796875 C5.23765427 51.76827927 5.24483978 52.86858978 5.25224304 54.00224304 C5.23432824 60.1017499 5.1363922 66.20992644 3 72 C0.8125 74.125 0.8125 74.125 -2 75 C-5.50844891 74.879019 -7.96655818 74.72340927 -10.875 72.6875 C-13.2701413 69.09478805 -13.1339328 65.25088672 -13.16113281 61.04150391 C-13.17074036 59.83990631 -13.1803479 58.63830872 -13.19024658 57.40029907 C-13.19449646 56.105466 -13.19874634 54.81063293 -13.203125 53.4765625 C-13.2088818 52.12901814 -13.21463946 50.78147379 -13.22039795 49.43392944 C-13.23088789 46.61122254 -13.23674379 43.78854395 -13.24023438 40.96582031 C-13.2457176 37.35897374 -13.26974996 33.75250493 -13.29820633 30.14577675 C-13.31688116 27.36271082 -13.32204085 24.57973507 -13.32357025 21.79661179 C-13.32804673 19.82356134 -13.34666745 17.85055926 -13.36553955 15.87759399 C-13.36253845 14.66969208 -13.35953735 13.46179016 -13.35644531 12.21728516 C-13.36009094 11.1590152 -13.36373657 10.10074524 -13.36749268 9.01040649 C-12.93148051 5.4387058 -11.8972336 3.04647053 -10 0 C-6.13648844 -1.28783719 -3.93303173 -1.03500835 0 0 Z " fill="#000000" transform="translate(233,84)"/>
<path d="M0 0 C2.57079473 2.57321676 3.86900764 4.22629155 4.48101807 7.84114075 C4.47213562 8.87816635 4.46325317 9.91519196 4.45410156 10.98364258 C4.45364838 12.75491264 4.45364838 12.75491264 4.45318604 14.56196594 C4.43254089 15.82671249 4.41189575 17.09145905 4.390625 18.39453125 C4.38496521 19.69702316 4.37930542 20.99951508 4.37347412 22.34147644 C4.35825289 25.79246101 4.31900316 29.24276462 4.2746582 32.69348145 C4.23362858 36.21938873 4.21544682 39.74540681 4.1953125 43.27148438 C4.15250398 50.18129633 4.08218392 57.0905453 4 64 C-1.94 64 -7.88 64 -14 64 C-14.0452417 56.6544876 -14.08191086 49.30905175 -14.10362434 41.96342945 C-14.11404739 38.55230838 -14.12817938 35.14128783 -14.15087891 31.73022461 C-14.17683004 27.80583919 -14.18648505 23.88149404 -14.1953125 19.95703125 C-14.20563507 18.73603226 -14.21595764 17.51503326 -14.22659302 16.2570343 C-14.22674408 15.1162291 -14.22689514 13.97542389 -14.22705078 12.80004883 C-14.231492 11.79855301 -14.23593323 10.79705719 -14.24050903 9.76521301 C-13.87836349 5.60150429 -13.01076169 2.86636716 -9.8125 0.125 C-6.03438646 -1.38624541 -3.88940939 -1.13146455 0 0 Z " fill="#000000" transform="translate(492,95)"/>
</svg>
